<?xml version="1.0" standalone="no"?>
<!DOCTYPE svg PUBLIC "-//W3C//DTD SVG 1.1//EN" "http://www.w3.org/Graphics/SVG/1.1/DTD/svg11.dtd" >
<svg>
<metadata>
Created by FontForge 20090914 at Sat Jul  9 09:39:49 2016
 By www-data
</metadata>
<defs>
<font id="anana-Regular" horiz-adv-x="600" >
  <font-face 
    font-family="anana"
    font-weight="400"
    font-stretch="normal"
    units-per-em="1000"
    panose-1="0 0 5 0 0 0 0 0 0 0"
    ascent="800"
    descent="-200"
    x-height="332.001"
    cap-height="625"
    bbox="-89.002 -461.003 655.153 800"
    underline-thickness="50"
    underline-position="-50"
    unicode-range="U+0020-U+00BF"
  />
<missing-glyph horiz-adv-x="500" 
d="M410 -200h-317v1000h317v-1000zM168 733v-33h65v-37h-66v-33h166v33h-66v37h66v33h-165zM167 604v-104h166v34h-66v70h-100zM233 534h-33v36h33v-36zM167 473v-33h66v-37h-66v-33h100v70h66v33h-166zM300 413v-66h-133v-34h166v100h-33zM233 291v-56h34v23h33v-47h-100
v80h-33v-113h166v113h-100zM167 118v-113h166v113h-166zM300 38h-100v47h100v-47zM167 -18v-33h70l-70 -47v-33h166v33h-102l70 47h32v33h-166z" />
    <glyph glyph-name=".notdef" horiz-adv-x="500" 
d="M410 -200h-317v1000h317v-1000zM168 733v-33h65v-37h-66v-33h166v33h-66v37h66v33h-165zM167 604v-104h166v34h-66v70h-100zM233 534h-33v36h33v-36zM167 473v-33h66v-37h-66v-33h100v70h66v33h-166zM300 413v-66h-133v-34h166v100h-33zM233 291v-56h34v23h33v-47h-100
v80h-33v-113h166v113h-100zM167 118v-113h166v113h-166zM300 38h-100v47h100v-47zM167 -18v-33h70l-70 -47v-33h166v33h-102l70 47h32v33h-166z" />
    <glyph glyph-name="space" unicode=" " horiz-adv-x="350" 
 />
    <glyph glyph-name="exclam" unicode="!" horiz-adv-x="269" 
d="M153 203c11.333 0 19.1699 4 23.5029 12s7.66602 17.833 9.99902 29.5s4.16602 20.5 5.49902 26.5c5.33301 23.333 10 45 14 65c39.333 173.333 60.333 273 63 299c1.33301 26.667 -3.33398 48 -14.001 64c-6 9.33301 -14.167 16.666 -24.5 21.999s-21.5 8 -33.5 8
c-22 0 -38.667 -7.66699 -50 -23c-6 -8 -11 -22 -15 -42c-2 -11.333 -3.66699 -19 -5 -23c-4.66699 -13.333 -7 -65.666 -7 -156.999c0 -36 0.666992 -97.333 2 -184l1 -64c0 -22 10 -33 30 -33zM83.5039 -57.5c15.667 -15.667 34.832 -23.5 57.499 -23.5
c20.667 0 38.334 7.5 53.001 22.5s22 33.167 22 54.5c0 12 -4 24.333 -12 37c-8.66699 12.667 -18.834 23 -30.501 31s-22.167 12 -31.5 12s-20.666 -4 -33.999 -12c-14.667 -8.66699 -26.5 -18.667 -35.5 -30s-12.833 -22.666 -11.5 -33.999
c-0.666992 -22.667 6.83301 -41.834 22.5 -57.501z" />
    <glyph glyph-name="quotedbl" unicode="&#x22;" horiz-adv-x="411" 
d="M344 457c14.667 33.333 25.001 58.999 31.001 76.999l8 25c14.667 42.667 23.667 79 27 109c0.666992 2 1 6 1 12c0 7.33301 -1.83301 12.833 -5.5 16.5s-10.5 7.16699 -20.5 10.5c-4.66699 2.66699 -11.667 4 -21 4c-8.66699 0 -15.334 -2.16699 -20.001 -6.5
s-8 -11.166 -10 -20.499l-5 -20l-7 -33l-6 -30c-12.667 -67.333 -20.334 -109.666 -23.001 -126.999v-7c0 -8.66699 1.5 -14.5 4.5 -17.5s9.83301 -6.5 20.5 -10.5c4 -1.33301 7.33301 -2 10 -2s4.33398 0.333008 5.00098 1c6 9.33301 9.66699 15.666 11 18.999z
M201.001 467.999c2.66699 -8 7.33301 -14 14 -18s14.334 -6 23.001 -6c23.333 0 35.333 9.33301 36 28c1.33301 14.667 4.66602 35 9.99902 61l25 120c0.666992 1.33301 1 5 1 11c0 10 -3.16699 18.333 -9.5 25s-14.833 10.667 -25.5 12l-12 1
c-0.666992 0.666992 -2.66699 1 -6 1c-6 0 -10 -3.33301 -12 -10l-13 -40l-32 -170v-4z" />
    <glyph glyph-name="numbersign" unicode="#" horiz-adv-x="591" 
d="M51 180c4 -0.666992 9.00586 -0.999023 15.0059 -0.999023c3.33301 -0.666992 11.666 -1 24.999 -1c12.667 0 21.334 2.16699 26.001 6.5s7 11.833 7 22.5c0 20.667 -1.33301 45.334 -4 74.001c-0.666992 10.667 -4.33398 18.667 -11.001 24
c-7.33301 5.33301 -23 8 -47 8c-3.33301 -0.666992 -10 -1 -20 -1c-13.333 0 -23.333 1.66699 -30 5c-6.66699 2.66699 -10 6 -10 10c0 4.66699 5 9 15 13c28 4 43.333 6 46 6c53.333 2 83.333 28.333 90 79c0.666992 8.66699 6 20.667 16 36c6 11.333 15 17 27 17
c1.33301 0 4.66602 -0.666992 9.99902 -2c5.33301 -2 10.333 -5.33301 15 -10c10 -10 15.333 -21.333 16 -34c0 -6.66699 0.666992 -13.334 2 -20.001c2 -13.333 6 -23.166 12 -29.499s15.333 -9.83301 28 -10.5c22.667 -1.33301 49 -2 79 -2c16.667 0 28 9.33301 34 28
l7 23c2 9.33301 4.33301 16.666 7 21.999c0.666992 2.66699 3 5.16699 7 7.5s7.66699 3.5 11 3.5c4 0 8.33301 -4 13 -12c2 -14 3 -22 3 -24c1.33301 -23.333 2.66602 -37.666 3.99902 -42.999c2 -7.33301 6.33301 -13 13 -17s20.667 -9 42 -15l12 -3
c6.66699 -2.66699 11 -5 13 -7c11.333 -5.33301 17 -13 17 -23c0 -4 -0.666992 -7.33301 -2 -10l-5 -11c-2 -5.33301 -5.33301 -8.33301 -10 -9s-12.5 0 -23.5 2s-17.833 3 -20.5 3c-14 1.33301 -24 -0.5 -30 -5.5s-9.66699 -14.5 -11 -28.5l-2 -55v-10
c0 -8.66699 1 -15 3 -19c3.33301 -4.66699 8.83301 -8.66699 16.5 -12s18.167 -7.33301 31.5 -12c9.33301 -2.66699 16.666 -5.66699 21.999 -9c2 -2 3 -4.66699 3 -8c0 -10.667 -1.66699 -19.334 -5 -26.001c-1.33301 -3.33301 -3.33301 -5.5 -6 -6.5s-7 -1.5 -13 -1.5
c-8.66699 0 -15.667 0.333008 -21 1c-8.66699 0.666992 -14.667 0.666992 -18 0c-8.66699 -1.33301 -15 -3.5 -19 -6.5s-6.66699 -8.5 -8 -16.5l-4 -17l-20 -89c-2 -9.33301 -5 -18 -9 -26c-2.66699 -4.66699 -6.33398 -8.5 -11.001 -11.5s-9.33398 -4.5 -14.001 -4.5l-9 2
c-4.66699 2 -9 5.5 -13 10.5s-6.33301 9.83301 -7 14.5c-4 30.667 -6 62 -6 94c0 18.667 -2.33301 31.167 -7 37.5s-15.334 11.166 -32.001 14.499c-29.333 7.33301 -50 11.333 -62 12c-2 0.666992 -5.66699 1 -11 1c-8 0 -14 -2.33301 -18 -7c-4 -4 -6.66699 -9 -8 -15
s-2.33301 -13.667 -3 -23l-4 -23c-2 -10 -4.66699 -17.333 -8 -22s-8.66602 -7 -15.999 -7c-8.66699 0 -14.5 2.66699 -17.5 8s-4.16699 13.666 -3.5 24.999c0 26.667 -0.333008 45.667 -1 57s-2.66699 19 -6 23s-10 7.5 -20 10.5s-18.667 4.83301 -26 5.5
c-2.66699 0.666992 -5.16699 1 -7.5 1s-4.5 0.333008 -6.5 1l-33 6c-14 0.666992 -24 2.66699 -30 6c-6.66699 2.66699 -10 6.33398 -10 11.001s3 8.5 9 11.5s12.333 3.83301 19 2.5c6 0.666992 13.667 1 23 1zM328.006 183.501c5.33301 3 9 8.16895 11 15.502
c6.66699 22 11 41.333 13 58c1.33301 8 0.333008 15.333 -3 22s-9 10.667 -17 12c-20.667 4 -37 6 -49 6c-8 0 -16 -1 -24 -3c-6.66699 -2 -11.167 -5.33301 -13.5 -10s-4.5 -12.334 -6.5 -23.001c-0.666992 -5.33301 -2 -12.333 -4 -21l-2 -8
c-3.33301 -16.667 -5 -26.334 -5 -29.001c0 -6 2.66699 -10.667 8 -14c5.33301 -2.66699 15.333 -4.66699 30 -6c19.333 -2 32.333 -3.66699 39 -5c10 0.666992 17.667 2.5 23 5.5z" />
    <glyph glyph-name="dollar" unicode="$" horiz-adv-x="377" 
d="M114.5 -48c-3 6.66699 -4.49902 18.333 -4.49902 35c-1.33301 27.333 -13.666 49.333 -36.999 66c-18 12 -32.5 27.5 -43.5 46.5s-19.833 41.833 -26.5 68.5l-1 6c-1.33301 4 -2 6.33301 -2 7c0 4.66699 2.33301 9 7 13c1.33301 0.666992 3 1 5 1
c3.33301 0 6.66602 -1.66699 9.99902 -5c5.33301 -6 10.166 -14.5 14.499 -25.5s6.83301 -17.167 7.5 -18.5c11.333 -26 27.166 -45.667 47.499 -59s45.833 -21.333 76.5 -24c17.333 -1.33301 31 0.333984 41 5.00098c11.333 4 21 13.667 29 29s12 30.666 12 45.999
c0 12.667 -3.5 24.667 -10.5 36s-16.833 23.333 -29.5 36l-23 23l-39 41l-78 82c-10 10 -18.5 24.833 -25.5 44.5s-10.5 36.834 -10.5 51.501c0 23.333 6.33301 44.5 19 63.5s30.334 33.167 53.001 42.5c21.333 9.33301 35.333 15.666 42 18.999
c10 4.66699 18.5 11.334 25.5 20.001s10.833 18.667 11.5 30c0.666992 2 2.5 4.33301 5.5 7s5.83301 4 8.5 4c7.33301 0 11 -7 11 -21v-8c-2 -16 0.5 -29.667 7.5 -41s18.167 -22.666 33.5 -33.999l11 -7c7.33301 -4.66699 12.666 -9.16699 15.999 -13.5
s4 -10.166 2 -17.499c-2 -4 -5 -6 -9 -6l-12 3c-5.33301 1.33301 -12.666 5 -21.999 11c-2 1.33301 -7 4.16602 -15 8.49902s-16 7.66602 -24 9.99902s-16.333 3.5 -25 3.5c-22.667 0 -42.667 -9.66699 -60 -29c-8 -8 -12 -16 -12 -24c0 -6.66699 3 -13.667 9 -21
c9.33301 -12.667 21 -23.667 35 -33s35.333 -22 64 -38s53.334 -31 74.001 -45c62.667 -40.667 94 -101 94 -181c0 -34.667 -8.33301 -64 -25 -88s-41.334 -41.667 -74.001 -53c-28 -9.33301 -49.333 -14 -64 -14c-8 0 -16 1 -24 3c-6.66699 2 -12.667 3 -18 3s-9 -1 -11 -3
s-4 -5.83301 -6 -11.5s-3.33301 -10.5 -4 -14.5l-6 -20c-2.66699 -10.667 -6 -16.334 -10 -17.001c-10.667 -2 -17.5 0.333008 -20.5 7z" />
    <glyph glyph-name="percent" unicode="%" horiz-adv-x="548" 
d="M87 474c-13.333 0 -27.333 3.66699 -42 11c-14 7.33301 -25.167 16.833 -33.5 28.5s-12.166 23.167 -11.499 34.5c6 54 37.667 81 95 81c16 0 30.5 -8.66699 43.5 -26s19.5 -36.333 19.5 -57c-0.666992 -48 -24.334 -72 -71.001 -72zM456 522
c-12 -18.667 -19.999 -32.334 -23.999 -41.001l-284 -507c-4.66699 -12 -13 -18 -25 -18c-4.66699 0 -7.66699 0.333008 -9 1c-23.333 10 -35 23.333 -35 40c0 4.66699 1.33301 12.334 4 23.001c5.33301 21.333 22.333 68 51 140s52 123.667 70 155
c19.333 34 56.833 89.333 112.5 166s91.5 122 107.5 136c7.33301 8 16.333 12 27 12c12 0 22.167 -4.5 30.5 -13.5s11.166 -18.833 8.49902 -29.5c-4 -12 -15.333 -33.333 -34 -64zM116.501 525.5c5.66699 4.33301 8.50098 10.5 8.50098 18.5
c0 9.33301 -4.83301 19.333 -14.5 30s-18.834 16 -27.501 16c-8 0 -15.5 -4 -22.5 -12s-10.5 -16.333 -10.5 -25c-0.666992 -10 3 -18.167 11 -24.5s18.667 -9.5 32 -9.5c10 0 17.833 2.16699 23.5 6.5zM393.002 80c0 20.667 7 39.999 21 57.999s29.333 27 46 27
c52.667 0 82 -29.667 88 -89c1.33301 -17.333 -7 -33.166 -25 -47.499s-38 -21.5 -60 -21.5c-46.667 0 -70 24.333 -70 73zM445.002 48.999c4.66699 -6 10.998 -8.99805 18.998 -8.99805c9.33301 0 19 5 29 15s15 19.667 15 29c0 7.33301 -4.16699 14.5 -12.5 21.5
s-17.166 10.5 -26.499 10.5c-9.33301 -0.666992 -16.666 -4.83398 -21.999 -12.501s-8.33301 -17.834 -9 -30.501c0 -10 2.33301 -18 7 -24z" />
    <glyph glyph-name="ampersand" unicode="&#x26;" horiz-adv-x="518" 
d="M220 190c22 14 49.3311 21 81.998 21c13.333 0 30.333 -1.33301 51 -4l13 -1c24.667 0 45 8.33301 61 25c8.66699 8.66699 13 17.667 13 27c0 10.667 -4.33301 19.334 -13 26.001c-5.33301 5.33301 -11 9.66602 -17 12.999s-11 5 -15 5c-7.33301 0 -15 -4 -23 -12l-3 -5
c-7.33301 -7.33301 -13.666 -11 -18.999 -11c-3.33301 0 -6.66602 1.5 -9.99902 4.5s-5 6.83301 -5 11.5c0 7.33301 2.33301 13.333 7 18c26 30 56.333 45 91 45l20 -2c18 -2.66699 33.333 -12 46 -28s19 -34 19 -54c0 -18.667 -10 -43.334 -30 -74.001
c-20.667 -30 -50.334 -45 -89.001 -45c-3.33301 0 -10.333 0.666992 -21 2l-16 2c-4.66699 0 -8.33398 -1.5 -11.001 -4.5s-5.66699 -8.83301 -9 -17.5c-12.667 -31.333 -29.334 -57 -50.001 -77c-17.333 -16 -36.166 -28.167 -56.499 -36.5s-40.833 -12.5 -61.5 -12.5
c-29.333 0 -56.666 7.66699 -81.999 23c-26.667 16 -48.667 39.5 -66 70.5s-26 63.167 -26 96.5c0 26.667 5.83301 52.834 17.5 78.501s31.834 43.834 60.501 54.501c8.66699 3.33301 14.334 6.33301 17.001 9c2.66699 2 4 5 4 9c0 2.66699 -1.66699 9 -5 19
c-4.66699 10 -7 22.667 -7 38c0 24 6.5 46 19.5 66s30.167 34.333 51.5 43c10 4 20.333 6 31 6c14 0 27 -3 39 -9c44 -21.333 70.667 -56 80 -104l2 -15c0 -6.66699 -3.33301 -11 -10 -13h-2c-5.33301 0 -8.66602 4.66699 -9.99902 14l-3 11c-8.66699 24 -24 36 -46 36
c-10.667 0 -21.834 -3.33301 -33.501 -10s-17.5 -15.667 -17.5 -27c0 -6.66699 1.33301 -12.667 4 -18l13 -23l20 -25c10.667 -12.667 16 -24 16 -34c0 -6 -1.33301 -11.333 -4 -16c-4.66699 -10.667 -13.667 -16 -27 -16c-4.66699 0 -8 0.333008 -10 1
c-2.66699 0.666992 -6.33398 1 -11.001 1c-24 2 -43.333 -1.66699 -58 -11c-14 -9.33301 -26.167 -23.5 -36.5 -42.5s-15.5 -36.833 -15.5 -53.5c0 -22 6 -42.667 18 -62c10.667 -18.667 24.5 -32.334 41.5 -41.001s35.5 -13 55.5 -13c20.667 0 40.5 4.83301 59.5 14.5
s34.167 23.167 45.5 40.5l16 28c2.66699 5.33301 4 11 4 17c0 10 -6 16.833 -18 20.5s-25.667 5.5 -41 5.5c-12 0 -23.333 -2.66699 -34 -8l-8 -5c-4.66699 -3.33301 -8 -5 -10 -5c-3.33301 0 -5.66602 2 -6.99902 6c-0.666992 8.66699 5.66602 17.667 18.999 27z" />
    <glyph glyph-name="quotesingle" unicode="'" horiz-adv-x="139" 
d="M88 468l9.00293 29.999l7 22l33 115c2 7.33301 3 13.666 3 18.999c0 22.667 -12.667 38 -38 46c-0.666992 0.666992 -3.33398 1 -8.00098 1c-10 0 -17.667 -5.66699 -23 -17c-30.667 -76 -47.667 -146.667 -51 -212c-0.666992 -10 0.666016 -16.667 3.99902 -20
s10 -5.66602 20 -6.99902c3.33301 -1.33301 6.33301 -1.33301 9 0h4c15.333 2.66699 25.666 10.334 30.999 23.001z" />
    <glyph glyph-name="parenleft" unicode="(" horiz-adv-x="328" 
d="M246 -50c-10 0 -20.834 1.33398 -32.501 4.00098s-21.5 6 -29.5 10c-42.667 21.333 -77 47 -103 77c-26 29.333 -46 66.666 -60 111.999s-21 91 -21 137c0 75.333 15.833 146.333 47.5 213s85.167 110.667 160.5 132l77 17c2 0.666992 6 1 12 1
c17.333 0 27.333 -6.33301 30 -19c0.666992 -2 1 -4.66699 1 -8c0 -8.66699 -4.66699 -15 -14 -19s-25.666 -9 -48.999 -15c-42 -8.66699 -72.333 -25.334 -91 -50.001c-17.333 -23.333 -30.833 -61.666 -40.5 -114.999s-14.5 -108 -14.5 -164c0 -46 3.33301 -88 10 -126
c6 -35.333 16.167 -65.833 30.5 -91.5s34.5 -46.5 60.5 -62.5c8 -5.33301 22.333 -10.333 43 -15c6.66699 -0.666992 10 -3 10 -7c0 -2 -1.5 -4 -4.5 -6s-6.5 -3.33301 -10.5 -4c-2 -0.666992 -6 -1 -12 -1z" />
    <glyph glyph-name="parenright" unicode=")" horiz-adv-x="328" 
d="M81 669c20 0 40.665 -4.99512 61.998 -14.9951c42 -21.333 76.667 -48 104 -80c26.667 -31.333 46.834 -70 60.501 -116s20.5 -95 20.5 -147c0 -81.333 -15.667 -156.5 -47 -225.5s-84.666 -114.167 -159.999 -135.5c-24 -7.33301 -50 -13.666 -78 -18.999
c-1.33301 -0.666992 -4.33301 -1 -9 -1c-10 0 -18.167 2.16699 -24.5 6.5s-9.5 11.166 -9.5 20.499s5.16699 16.666 15.5 21.999s26.166 10.666 47.499 15.999c43.333 10 74 27.667 92 53c16.667 23.333 29.834 63.166 39.501 119.499s14.5 113.833 14.5 172.5
c0 43.333 -1.83301 81.833 -5.5 115.5s-13 67.167 -28 100.5s-37.833 59.666 -68.5 78.999c-8 4.66699 -22.667 9.66699 -44 15c-6 1.33301 -9 3.66602 -9 6.99902c0 2 1.5 4.16699 4.5 6.5s6.5 3.83301 10.5 4.5c2 0.666992 6 1 12 1z" />
    <glyph glyph-name="asterisk" unicode="*" horiz-adv-x="260" 
d="M24 657c-4.66699 0 -7.99805 -1.99609 -9.99805 -5.99609c-2.66699 -4.66699 -6.33398 -13 -11.001 -25l18 -11l28 -19c6 -2.66699 9 -8.33398 9 -17.001c0.666992 -11.333 0 -18.333 -2 -21s-9 -5.66699 -21 -9l-16 -3c-12.667 -4 -19 -11 -19 -21l2 -9
c2.66699 -10.667 8 -16 16 -16c6 0 11.333 1.33301 16 4l14 5l14 5c2 -8 5.33301 -17.667 10 -29c3.33301 -6.66699 8.33301 -12.5 15 -17.5s13.667 -7.5 21 -7.5s13.166 2.66699 17.499 8s9.5 15 15.5 29l8 20c2 3.33301 3 7.33301 3 12l23 -10l27 -11
c4.66699 -2.66699 9 -4 13 -4c3.33301 0 6.5 2.16699 9.5 6.5s4.5 9.16602 4.5 14.499s-2.33301 10.333 -7 15l-30 26l59 28c6 3.33301 9 8 9 14l-2 8c-4 10 -9.33301 15 -16 15c-3.33301 0 -5.33301 -0.333008 -6 -1l-18 -6c-14.667 -4.66699 -24.667 -8.33398 -30 -11.001
l-22 -8l-2 4l-1 14c2 27.333 -9.66699 47.666 -35 60.999c-8 3.33301 -15 5 -21 5c-9.33301 0 -17.333 -2.83301 -24 -8.5s-11.334 -13.5 -14.001 -23.5l-5 -17c-21.333 11.333 -34.666 17 -39.999 17z" />
    <glyph glyph-name="plus" unicode="+" horiz-adv-x="352" 
d="M135 80c0 -17.333 0.672852 -30.167 2.00586 -38.5s4 -15.166 8 -20.499c4.66699 -6 12.167 -11.5 22.5 -16.5s19.5 -7.5 27.5 -7.5c11.333 0 20.666 3.66699 27.999 11c6 6.66699 10 16.834 12 30.501s3 31.5 3 53.5v3c0 6 1.33301 10 4 12s7 3 13 3l15 -2
c10 0 17 -0.333008 21 -1l23 -2l14 1c7.33301 0.666992 13.166 4 17.499 10s6.5 13.333 6.5 22c0 8 -3 15 -9 21s-14.333 9.66699 -25 11c-22 3.33301 -44.333 5.66602 -67 6.99902c-6.66699 0 -11 1.16699 -13 3.5s-3 6.5 -3 12.5c0 36 -0.333008 57 -1 63
c-0.666992 12.667 -2.83398 21.167 -6.50098 25.5s-11.834 7.83301 -24.501 10.5c-2 0 -5.66699 0.5 -11 1.5s-10.666 1.5 -15.999 1.5c-18.667 0 -28.334 -9.33301 -29.001 -28c-4.66699 -26.667 -7.33398 -53 -8.00098 -79c-0.666992 -6 -2 -10.167 -4 -12.5
s-5.66699 -3.5 -11 -3.5h-5c-2 0.666992 -11 1 -27 1c-6.66699 0 -13.334 -0.666992 -20.001 -2c-5.33301 -1.33301 -10.333 -5 -15 -11s-7 -12 -7 -18s2.5 -11.5 7.5 -16.5s11.5 -7.83301 19.5 -8.5l9 -1l10 1c23.333 0 36.333 -1 39 -3
c0.666992 -0.666992 1 -4.33398 1 -11.001v-23h-1z" />
    <glyph glyph-name="comma" unicode="," horiz-adv-x="175" 
d="M170 84c-3.33301 8 -7.66992 13.832 -13.0029 17.499s-15.666 8.5 -30.999 14.5c-4.66699 2 -9.66699 3 -15 3c-9.33301 0 -18 -3 -26 -9c-18.667 -14 -28 -29.333 -28 -46c0 -9.33301 3 -20.666 9 -33.999c2.66699 -5.33301 4 -9.66602 4 -12.999
c0 -4.66699 -2.66699 -8.66699 -8 -12c-3.33301 -2.66699 -6.16602 -7.33398 -8.49902 -14.001s-3.5 -13 -3.5 -19c0 -12 3.16699 -21.167 9.5 -27.5s14.5 -9.5 24.5 -9.5c8 0 16.833 3.33301 26.5 10s17.834 14 24.501 22c14 16 24.167 31.833 30.5 47.5s9.5 32.5 9.5 50.5
c0 2.66699 -1.66699 9 -5 19z" />
    <glyph glyph-name="hyphen" unicode="-" horiz-adv-x="285" 
d="M179 115l84.999 -0.000976562c14 1.33301 21 7.33301 21 18c0 4.66699 -0.333008 7.66699 -1 9l-3 21c-1.33301 16.667 -9 25.334 -23 26.001l-145 12l-46 3c-6.66699 0 -11.167 -1.33301 -13.5 -4s-3.5 -8.66699 -3.5 -18v-10
c0.666992 -18.667 5.83398 -33.667 15.501 -45s22.5 -17 38.5 -17l45 2l30 2v1z" />
    <glyph glyph-name="period" unicode="." horiz-adv-x="214" 
d="M50 61c0 -4.66699 1.33398 -10.999 4.00098 -18.999c6 -13.333 12.667 -24.166 20 -32.499s18.666 -12.5 33.999 -12.5c10 0 19.333 2.16699 28 6.5s14.667 10.166 18 17.499c6.66699 13.333 10 28 10 44c0 18 -5.33301 34.833 -16 50.5s-25 23.5 -43 23.5
c-23.333 0 -40 -11.333 -50 -34c-2 -4.66699 -3 -11.334 -3 -20.001l-2 -19v-5z" />
    <glyph glyph-name="slash" unicode="/" horiz-adv-x="339" 
d="M308 569l-14.999 -36.001l-222 -589c-4.66699 -16.667 -15.334 -24 -32.001 -22c-26 8 -39 22.333 -39 43c0 3.33301 0.666992 10.333 2 21c2 22.667 13.333 75.334 34 158.001s38 142.667 52 180c14 38 44.333 102 91 192s77 144.333 91 163
c7.33301 11.333 17.333 17 30 17c10.667 0 20.167 -4.5 28.5 -13.5s11.5 -18.5 9.5 -28.5c-4 -20 -14 -48.333 -30 -85z" />
    <glyph glyph-name="zero" unicode="0" horiz-adv-x="279" 
d="M210 53c20.667 25.333 36.834 58.8301 48.501 100.497s17.5 84.5 17.5 128.5c0 66.667 -13.667 120.334 -41 161.001s-66.333 59.334 -117 56.001c-16.667 -2.66699 -29 -5.66699 -37 -9c-8.66699 -4 -15.834 -9.66699 -21.501 -17s-12.834 -20 -21.501 -38
c-12 -29.333 -21.333 -63 -28 -101s-10 -75 -10 -111c0 -21.333 1 -39.666 3 -54.999c12.667 -49.333 30.5 -87.333 53.5 -114s50.5 -40 82.5 -40c26.667 0 50.334 13 71.001 39zM199 377.997c4 -14 6.00098 -32.002 6.00098 -54.002c0 -28 -3 -57 -9 -87s-14 -55 -24 -75
c-10.667 -20.667 -22 -31 -34 -31c-7.33301 0.666992 -12.5 2.83398 -15.5 6.50098s-5.83301 10.834 -8.5 21.501c-2.66699 6 -4 21.333 -4 46c0 49.333 6.16699 93.833 18.5 133.5s29.166 59.5 50.499 59.5c8 0 14.667 -6.66699 20 -20z" />
    <glyph glyph-name="one" unicode="1" horiz-adv-x="243" 
d="M67 174c-4.66699 -44 -6.99902 -86.333 -6.99902 -127c0 -18 3.5 -30.333 10.5 -37s17.5 -10 31.5 -10c10.667 0 27 1 49 3c13.333 0.666992 22.666 27.667 27.999 81c4.66699 48.667 8 129 10 241l3 132c0.666992 5.33301 1 12.666 1 21.999v6
c0 10.667 -2 18.334 -6 23.001s-11.333 8 -22 10s-19 3 -25 3c-8.66699 0 -16 -5.33301 -22 -16c-11.333 -18.667 -24 -35.334 -38 -50.001s-32.333 -31 -55 -49c-14.667 -12 -22.667 -19.667 -24 -23c-0.666992 -1.33301 -1 -3.66602 -1 -6.99902
c0 -5.33301 0.666992 -9.33301 2 -12c2.66699 -8.66699 7.5 -15.667 14.5 -21s14.833 -7.33301 23.5 -6l16 5l17 6c4 1.33301 6 1 6 -1c-4 -41.333 -8 -99 -12 -173z" />
    <glyph glyph-name="two" unicode="2" horiz-adv-x="324" 
d="M78 467c26 18.667 53.332 27.999 81.999 27.999c8 0 13 -0.333008 15 -1c49.333 -7.33301 74 -31.666 74 -72.999c0 -23.333 -6.66699 -50.5 -20 -81.5s-34.333 -71.833 -63 -122.5c-20.667 -38.667 -35.667 -67.667 -45 -87c-9.33301 -20.667 -14 -37 -14 -49
c0 -14 7.66699 -22 23 -24l15 -1c13.333 0 30.333 1.33301 51 4c24 2 39 3 45 3c18.667 0 29.667 -3.66699 33 -11c0 -15.333 -10 -25.666 -30 -30.999c-24 -6 -55 -9.33301 -93 -10c-28.667 -0.666992 -55.667 -2.66699 -81 -6c-10 -3.33301 -18 -5 -24 -5
c-14.667 0 -26 5.66699 -34 17c-8 10 -12 22.333 -12 37c0 19.333 6.66699 42 20 68l63 114c30 50.667 52 90 66 118c14.667 29.333 22 53.666 22 72.999c0 10 -2.83301 18 -8.5 24s-12.834 9 -21.501 9c-9.33301 0 -19.166 -3.5 -29.499 -10.5
s-24.166 -18.833 -41.499 -35.5c-18 -19.333 -30.667 -29 -38 -29c-6 0 -9.33301 5.33301 -10 16c11.333 25.333 30 47.333 56 66z" />
    <glyph glyph-name="three" unicode="3" horiz-adv-x="302" 
d="M219.5 244c22.333 -22 33.501 -48.0029 33.501 -78.0029c0 -17.333 -4.66699 -37 -14 -59c-14 -32 -34.167 -58.167 -60.5 -78.5s-53.5 -30.5 -81.5 -30.5c-34.667 0 -64.334 15.333 -89.001 46l-5 10c-2.66699 4.66699 -4 9 -4 13c0 2 0.833008 4.66699 2.5 8
s4.16699 5 7.5 5c2 0 7 -2 15 -6c10.667 -6.66699 22 -10 34 -10c15.333 0 30.333 6.66699 45 20c14 12.667 25 29.334 33 50.001s12 41.334 12 62.001c0 27.333 -7.83301 49.5 -23.5 66.5s-38.167 25.167 -67.5 24.5l-16 -1c-10.667 0 -17.334 4.33301 -20.001 13
c-0.666992 1.33301 -1 3 -1 5c0 7.33301 5.33301 12.666 16 15.999l12 4c41.333 19.333 62 50.666 62 93.999c0 18.667 -2.33301 35.334 -7 50.001c-2.66699 12.667 -9 19 -19 19c-7.33301 0 -16.166 -3.16699 -26.499 -9.5s-16.5 -10.166 -18.5 -11.499l-20 -12l-16 2v16
c16 16.667 33.5 29.334 52.5 38.001s37.833 13 56.5 13c22.667 0 41.5 -6.16699 56.5 -18.5s22.5 -28.5 22.5 -48.5c0 -35.333 -22.333 -72.333 -67 -111l-20 -22c54.667 -30.667 93.167 -57 115.5 -79z" />
    <glyph glyph-name="four" unicode="4" horiz-adv-x="372" 
d="M313 217l-2.00098 -31.999c-4 -80 -6 -127 -6 -141c0 -12 -2.16699 -20.833 -6.5 -26.5s-15.166 -13.167 -32.499 -22.5c-15.333 -6.66699 -28.333 -10 -39 -10c-10 0 -17.333 3.83301 -22 11.5s-7 19.834 -7 36.501l2 42l2 23c0.666992 8 1 18.333 1 31
c0 17.333 -6.83301 29.166 -20.5 35.499s-35.167 9.5 -64.5 9.5h-32c-30.667 0 -53 3.5 -67 10.5s-21 20.167 -21 39.5c0 10 1.33301 19 4 27c2 8.66699 16.333 39.167 43 91.5l70 133.5l3 6c0.666992 2.66699 2.66699 5 6 7c2 1.33301 5 2.66602 9 3.99902s7.66699 2 11 2
c7.33301 0 11 -3.33301 11 -10c0 -12.667 -13 -45 -39 -97c-18.667 -38 -31.334 -66 -38.001 -84c-8.66699 -20 -13 -37 -13 -51c0 -15.333 8 -22.666 24 -21.999c39.333 5.33301 70.333 10.666 93 15.999c12.667 2.66699 21.667 8.16699 27 16.5s8 19.833 8 34.5l-1 28
l-2 31c0 17.333 3 32.333 9 45c6 12 17.333 22.667 34 32s31.334 14 44.001 14c8 0 13.5 -2.5 16.5 -7.5s4.5 -12.833 4.5 -23.5l-1 -31z" />
    <glyph glyph-name="five" unicode="5" horiz-adv-x="353" 
d="M156 447l118.999 4.00098c12 0 19.667 1 23 3s5 7 5 15l-1 18c-0.666992 6 -2.16699 10 -4.5 12s-7.16602 3 -14.499 3h-229c-11.333 0 -19 -1.66699 -23 -5s-6.33301 -10 -7 -20l-3 -37c-3.33301 -38.667 -6 -75.334 -8 -110.001c-0.666992 -4 -1 -17.667 -1 -41l1 -82
c0.666992 -10 5.33398 -19.667 14.001 -29s18 -14.666 28 -15.999c1.33301 -0.666992 6.33301 -1 15 -1c14.667 0 27.667 2.33301 39 7c9.33301 3.33301 16.5 5.66602 21.5 6.99902s10.167 2 15.5 2c8 0 14.333 -2.83301 19 -8.5s7 -13.834 7 -24.501
c0 -28 -9.66699 -52.167 -29 -72.5s-43 -32.166 -71 -35.499c-2 -0.666992 -8.33301 -1 -19 -1c-16.667 0 -29.667 -4 -39 -12s-14 -19.333 -14 -34c0 -26 17 -42 51 -48l24 -2c30.667 0 63.667 10.667 99 32c67.333 43.333 101 106 101 188
c0 31.333 -7.33301 55.5 -22 72.5s-36.334 25.5 -65.001 25.5l-29 -2l-27 -1c-8 0 -11.667 1 -11 3l14 188c0 1.33301 7 2 21 2z" />
    <glyph glyph-name="six" unicode="6" horiz-adv-x="398" 
d="M99.5 -25.5c-16.333 5 -31.166 13.167 -44.499 24.5c-36.667 28.667 -55 64.667 -55 108l2 24c4.66699 36 13 72.333 25 109c16 47.333 44 121.666 84 222.999l6 17c2 6 5 11.667 9 17c4.66699 6.66699 17.667 13.834 39 21.501s38.666 11.5 51.999 11.5
c11.333 0 16 -3.33301 14 -10l-68 -224l-6 -16l-2 -13c0 -9.33301 4.33301 -14 13 -14l12 2c11.333 3.33301 23.333 5 36 5s26 -1 40 -3c27.333 -2.66699 49.5 -15.5 66.5 -38.5s25.5 -49.167 25.5 -78.5c0 -9.33301 -0.333008 -15.333 -1 -18
c-4 -28 -14.667 -54.333 -32 -79c-18 -24.667 -40.667 -44 -68 -58s-56.333 -21 -87 -21c-24 2 -44.167 5.5 -60.5 10.5zM255 34c13.333 8.66699 24.1641 20.502 32.4971 35.502s12.5 27.833 12.5 38.5c0 16 -7.33301 31.667 -22 47
c-13.333 14.667 -28.666 24.834 -45.999 30.501s-38.666 8.5 -63.999 8.5l-26 -1c-2.66699 0 -5.66699 -1.5 -9 -4.5s-5.66602 -6.16699 -6.99902 -9.5l-8 -28c-4.66699 -16 -7 -32 -7 -48c0 -24.667 9.33301 -44.834 28 -60.501s43 -23.834 73 -24.501
c14 1.33301 28.333 6.66602 43 15.999z" />
    <glyph glyph-name="seven" unicode="7" horiz-adv-x="378" 
d="M217 438c-2.66699 -7.33301 -6.99902 -14.667 -12.999 -22c-6.66699 -10.667 -10.667 -17.667 -12 -21c-0.666992 -3.33301 -7.66699 -15.666 -21 -36.999l-21 -38c-12 -24.667 -21.333 -43 -28 -55l-18 -36l-29 -66l-8 -19l-17 -39
c-22.667 -50.667 -37.667 -86 -45 -106c-3.33301 -12 -5 -20.333 -5 -25c0 -18 13.667 -27 41 -27h29c23.333 1.33301 37.333 12.666 42 33.999c2 8 7 23 15 45l26 62l14 34c14 36 32 74.333 54 115l28 58l38 84l38 84c2 5.33301 3 10 3 14c0 6 -2 11 -6 15
s-9.66699 6.33301 -17 7c-64.667 4 -107 6.33301 -127 7h-35c-48.667 0 -77.334 -0.333008 -86.001 -1c-12.667 0 -20.667 -1.83301 -24 -5.5s-4.66602 -11.5 -3.99902 -23.5c0 -10 0.666992 -16.833 2 -20.5s4.66602 -6.5 9.99902 -8.5c4.66699 -2.66699 13.667 -4 27 -4
c14 0.666992 62.667 1 146 1c3.33301 1.33301 4.33301 -0.666992 3 -6z" />
    <glyph glyph-name="eight" unicode="8" horiz-adv-x="348" 
d="M64 -5c-16 8.66699 -28.998 20.501 -38.998 35.501s-15 31.5 -15 49.5c0 10 1.33301 18.667 4 26c8.66699 30 24 65.667 46 107c6.66699 11.333 10 20 10 26c0 4.66699 -4.33301 13 -13 25c-19.333 25.333 -33.666 49.166 -42.999 71.499s-14 45.166 -14 68.499
c0 35.333 10.167 63.666 30.5 84.999s47.166 32 80.499 32c36 0 66.5 -10.167 91.5 -30.5s37.5 -45.5 37.5 -75.5c0 -7.33301 -1 -15.666 -3 -24.999c-5.33301 -26 -17.333 -51.333 -36 -76c-7.33301 -9.33301 -11 -16.333 -11 -21c0 -5.33301 5.66699 -12.666 17 -21.999
c20 -14.667 39 -30.667 57 -48c10.667 -10 18.667 -22 24 -36s8.66602 -30.667 9.99902 -50c0.666992 -6 -1.66602 -16.5 -6.99902 -31.5s-10 -25.5 -14 -31.5c-14 -22 -27.833 -38.333 -41.5 -49s-34.834 -21 -63.501 -31c-4.66699 -2 -17.334 -4.66699 -38.001 -8l-23 -3
c-16 -1.33301 -31.667 2.66699 -47 12zM186.002 458.001c-4.66699 2.66699 -10.668 4 -18.001 4c-12 0 -22 -4 -30 -12c-12.667 -12 -21.5 -22.167 -26.5 -30.5s-7.5 -20.5 -7.5 -36.5c0 -7.33301 0.333008 -12 1 -14c0.666992 -10 7.33398 -21.333 20.001 -34
c7.33301 -7.33301 12.333 -12.666 15 -15.999c2.66699 -4 6.66699 -6 12 -6s10 2.33301 14 7c28 34 43.333 65.667 46 95c-1.33301 19.333 -10 33.666 -26 42.999zM158.001 65.001c18.667 13.333 29.667 26 33 38c1.33301 4 2 8.33301 2 13c0 9.33301 -3.33301 17 -10 23
c-8.66699 8.66699 -23.334 21.667 -44.001 39c-5.33301 4 -11 6 -17 6c-4.66699 0 -8.66699 -2 -12 -6l-18 -26.5c-10.667 -15.667 -19 -32.167 -25 -49.5c-1.33301 -4 -2 -8.33301 -2 -13c0 -12 4.5 -22.5 13.5 -31.5s19.833 -13.5 32.5 -13.5
c12.667 0.666992 28.334 7.66699 47.001 21z" />
    <glyph glyph-name="nine" unicode="9" horiz-adv-x="333" 
d="M138 212l-2 -3.99707l-60 -163l-3 -9l-2 -10c0 -4.66699 1.33301 -8.33398 4 -11.001c5.33301 -5.33301 11.333 -9.33301 18 -12c6.66699 -3.33301 18.5 -7.5 35.5 -12.5s29.5 -7.5 37.5 -7.5c7.33301 0 12.833 2.16699 16.5 6.5s9.5 14.833 17.5 31.5
c12 22.667 25.333 53 40 91c12.667 34 20.834 60.167 24.501 78.5s9.16699 55.166 16.5 110.499l2 31c0 32 -6.33301 62 -19 90c-12.667 28.667 -31.667 51.5 -57 68.5s-55.333 25.5 -90 25.5c-22 0 -40 -3 -54 -9c-13.333 -6 -23 -13.833 -29 -23.5
s-11.333 -22.834 -16 -39.501l-7 -22c-7.33301 -30.667 -11 -57.667 -11 -81s2 -43 6 -59c4 -16.667 12.667 -31.5 26 -44.5s30.666 -21.167 51.999 -24.5c2 -0.666992 8 -1 18 -1l36 1v-1zM150 293.003c-3.33301 -8.66699 -8.49902 -15.501 -15.499 -20.501
s-14.833 -7.5 -23.5 -7.5c-16 0 -28.333 5.5 -37 16.5s-13 23.167 -13 36.5c0 26.667 1 49 3 67c4 37.333 15 65 33 83c5.33301 4 11.666 6 18.999 6c10 0 19.5 -2.5 28.5 -7.5s14.833 -11.5 17.5 -19.5c6 -18 9 -36 9 -54c0 -31.333 -7 -64.666 -21 -99.999z" />
    <glyph glyph-name="colon" unicode=":" horiz-adv-x="150" 
d="M82 329c-13.333 0 -26.668 -7.99902 -40.001 -23.999s-19.666 -31.333 -18.999 -46c1.33301 -26 6.33301 -44 15 -54s23.334 -15 44.001 -15c16.667 0 32.167 8.16699 46.5 24.5s21.5 34.166 21.5 53.499c-0.666992 40.667 -23.334 61 -68.001 61zM105.498 114.501
c-11 8.33301 -23.167 12.501 -36.5 12.501l-16 -2c-16 -4 -28.833 -11.667 -38.5 -23s-14.5 -24 -14.5 -38c0 -15.333 5.66699 -29.666 17 -42.999c5.33301 -6.66699 12 -11.834 20 -15.501s16 -5.5 24 -5.5c11.333 0 20.333 3.33301 27 10
c21.333 19.333 32 43.666 32 72.999c1.33301 12.667 -3.5 23.167 -14.5 31.5z" />
    <glyph glyph-name="semicolon" unicode=";" horiz-adv-x="177" 
d="M161 283c-10.667 10 -27.333 16 -50 18c-8 0 -17.333 -3.66699 -28 -11c-10.667 -8 -18.667 -16.833 -24 -26.5s-8 -22.167 -8 -37.5c0 -22.667 4.66699 -39 14 -49s24 -15 44 -15c16.667 0 32.167 7.83301 46.5 23.5s21.5 33.167 21.5 52.5c0 20 -5.33301 35 -16 45z
M171.001 61c-3.33301 8.66699 -8.33398 15.667 -15.001 21s-16.667 10.333 -30 15c-4.66699 2 -9.66699 3 -15 3c-9.33301 0 -18 -3 -26 -9c-18.667 -14 -28 -29 -28 -45c0 -10 3 -21.667 9 -35c2.66699 -5.33301 4 -9.66602 4 -12.999c0 -4.66699 -2.66699 -8.66699 -8 -12
c-3.33301 -2.66699 -6.16602 -7.33398 -8.49902 -14.001s-3.5 -13 -3.5 -19c0 -6.66699 1.33301 -12.334 4 -17.001c4 -12.667 13.667 -19 29 -19c16.667 0 34 10.333 52 31c14 16.667 24.167 32.834 30.5 48.501s9.5 32.5 9.5 50.5c0 3.33301 -1.33301 8 -4 14z" />
    <glyph glyph-name="less" unicode="&#x3c;" horiz-adv-x="360" 
d="M248 27l-45.001 15.998l-101 43c-22.667 8.66699 -37.667 21.334 -45 38.001c-4.66699 9.33301 -7 20 -7 32c0 15.333 5.66699 30.666 17 45.999c36.667 48.667 77.667 98.334 123 149.001c12 12.667 24.333 19 37 19c18 0 32.333 -10.333 43 -31
c3.33301 -6.66699 5 -13.667 5 -21c0 -10 -3.33301 -19.333 -10 -28l-58 -74c-23.333 -29.333 -37.666 -47 -42.999 -53c-4.66699 -4.66699 -7 -10 -7 -16c0 -5.33301 4.33301 -10 13 -14l73 -32c22 -11.333 38.667 -20.666 50 -27.999s17 -15 17 -23l-2 -11
c-2.66699 -6.66699 -6.66699 -11.5 -12 -14.5s-13 -4.83301 -23 -5.5z" />
    <glyph glyph-name="greater" unicode="&#x3e;" horiz-adv-x="310" 
d="M157 357l101.001 -43c22.667 -8.66699 37.667 -21.334 45 -38.001c4.66699 -9.33301 7 -20 7 -32c0 -16 -5.33301 -31.333 -16 -46l-123 -149c-12 -12.667 -24.333 -19 -37 -19c-18.667 0 -33.334 10.333 -44.001 31c-3.33301 6.66699 -5 13.334 -5 20.001
c0 10 3.66699 19.667 11 29l34 45c8.66699 10.667 14.5 18 17.5 22s4.83301 6.33301 5.5 7l43 53c5.33301 7.33301 8 12.666 8 15.999c0 5.33301 -4.33301 10 -13 14l-73 32c-24.667 12.667 -41.667 22 -51 28c-11.333 7.33301 -17 15 -17 23c0 3.33301 1 7 3 11
c4.66699 12.667 16 19.334 34 20.001z" />
    <glyph glyph-name="question" unicode="?" horiz-adv-x="405" 
d="M80 443c0 7.33301 1.99707 21.999 5.99707 43.999c6.66699 30.667 22.834 57.5 48.501 80.5s54.167 36.5 85.5 40.5c12 2 23 3 33 3c32 0 58.333 -8 79 -24c21.333 -16 38.833 -41 52.5 -75s20.5 -68 20.5 -102c0 -36.667 -8.16699 -71.667 -24.5 -105
s-39.833 -63.333 -70.5 -90c-26 -22 -46.333 -40 -61 -54s-27.5 -31 -38.5 -51s-15.5 -41 -13.5 -63c0.666992 -12 -1.5 -21.5 -6.5 -28.5s-11.833 -10.5 -20.5 -10.5c-7.33301 0 -13.5 2 -18.5 6s-9.5 10.333 -13.5 19c-14 26.667 -21 52.667 -21 78
c0 12.667 1.33301 23.334 4 32.001c16 69.333 45 125.333 87 168l15 15c20.667 20.667 34.334 35 41.001 43c10 12 18.167 27.167 24.5 45.5s9.5 37.833 9.5 58.5c0 12 -1 23.333 -3 34c-2 13.333 -10 25.333 -24 36s-28.667 16 -44 16c-11.333 0 -21.333 -3 -30 -9
c-37.333 -26.667 -62 -60 -74 -100l-3 -15c-2 -8.66699 -4.16699 -15.167 -6.5 -19.5s-6.16602 -6.5 -11.499 -6.5c-14.667 2 -22 13.333 -22 34zM148.997 -156.001c-14 15.333 -21.333 32 -22 50c0 16.667 6.83301 31.834 20.5 45.501s28.834 20.5 45.501 20.5
c15.333 0 29.666 -6.83301 42.999 -20.5s20 -28.834 20 -45.501c0 -18 -6.5 -34.667 -19.5 -50s-27.167 -23 -42.5 -23c-16 0 -31 7.66699 -45 23z" />
    <glyph glyph-name="at" unicode="@" 
d="M372 -36l49 2.99805c2.66699 0.666992 6.66699 1 12 1c13.333 0 20 -5 20 -15c0 -6 -2 -10.667 -6 -14s-10.667 -5.66602 -20 -6.99902l-122 -27l-109 -18l-23 -2c-32 0 -62.667 9.66699 -92 29c-27.333 18 -47.666 41 -60.999 69s-20 57.667 -20 89l2 31
c6 37.333 13.5 68.833 22.5 94.5s22.167 48.5 39.5 68.5c20.667 33.333 42.667 59.333 66 78c20.667 18 42.834 31.833 66.501 41.5s53.834 17.834 90.501 24.501l32 2c56 0 106.5 -12.5 151.5 -37.5s71.167 -69.833 78.5 -134.5l2 -32c0 -24.667 -3.66699 -51 -11 -79
c-6 -24 -16.333 -45.5 -31 -64.5s-31.334 -33.833 -50.001 -44.5s-36 -16 -52 -16c-32 0 -60.667 14 -86 42c-1.33301 2 -3.83301 5 -7.5 9s-6.83398 6.83301 -9.50098 8.5s-5 2.5 -7 2.5c-4 0 -12.667 -3.66699 -26 -11c-20 -9.33301 -38.333 -14 -55 -14
c-24 0 -42.167 6.16699 -54.5 18.5s-18.5 29.833 -18.5 52.5c0 36 13.167 63.667 39.5 83s57.166 29 92.499 29c12 0 24 -1 36 -3h2c2 0 4.66699 1.66699 8 5c4.66699 3.33301 8 5 10 5c9.33301 0.666992 16.166 -1 20.499 -5s6.83301 -10.667 7.5 -20
c0 -5.33301 -0.333008 -9.33301 -1 -12s-1 -6.33398 -1 -11.001c-2 -23.333 1.66699 -45.333 11 -66c12 -22.667 29.333 -34 52 -34c8.66699 0 16 1.33301 22 4c28.667 8.66699 48.834 24.5 60.501 47.5s17.5 49.167 17.5 78.5c0 49.333 -15.667 86.333 -47 111
c-17.333 13.333 -42.833 24.333 -76.5 33s-64.5 13 -92.5 13c-22 0 -43.833 -3.5 -65.5 -10.5s-40.167 -15.167 -55.5 -24.5c-12.667 -8 -23.167 -18.667 -31.5 -32s-17.833 -33.333 -28.5 -60c-6.66699 -19.333 -14 -52.666 -22 -99.999
c-2.66699 -11.333 -4 -25.333 -4 -42c0 -33.333 9.16699 -60 27.5 -80s46.833 -36.333 85.5 -49c10 -2.66699 25.667 -5.66699 47 -9c4 -0.666992 11.667 -1 23 -1h22c10.667 0 17.667 -0.333008 21 -1c26 2 42.333 3 49 3zM232 92.998
c4.66699 -7.33301 10.999 -11 18.999 -11c6.66699 0 13.334 2 20.001 6c19.333 10 31 40.333 35 91v2c0 2.66699 -0.666992 5.5 -2 8.5s-3 5.16699 -5 6.5c-21.333 2 -39 -3 -53 -15s-21 -31.333 -21 -58c0 -12.667 2.33301 -22.667 7 -30z" />
    <glyph glyph-name="A" unicode="A" horiz-adv-x="555" 
d="M411 65l-52.999 145.002c-3.33301 10 -7.33301 16.667 -12 20s-12 4.66602 -22 3.99902c-6.66699 -1.33301 -19.667 -3 -39 -5c-42.667 -6 -68.667 -9.33301 -78 -10c-14 -1.33301 -25 -5.33301 -33 -12s-14 -17 -18 -31c-8.66699 -30 -23 -74 -43 -132
c-10 -28.667 -26.333 -43 -49 -43c-12.667 0 -24.334 3.33301 -35.001 10c-19.333 12.667 -29 27.667 -29 45l2 14c9.33301 30.667 45 117.834 107 261.501s103.333 235.5 124 275.5c6 12.667 11.333 22.667 16 30c10 14 18.333 23.5 25 28.5s14.667 7.5 24 7.5
s21.333 -3 36 -9c7.33301 -3.33301 12.833 -8.83301 16.5 -16.5s6.5 -19.167 8.5 -34.5c6 -56 13 -112 21 -168l13 -88c13.333 -93.333 24.333 -163.333 33 -210c5.33301 -32 16.333 -63.667 33 -95s34.334 -47 53.001 -47c14.667 0 31.667 8.66699 51 26
c4.66699 4.66699 9 7 13 7c2.66699 0 5 -1.33301 7 -4s3 -5.66699 3 -9c0 -8.66699 -4.33301 -17.834 -13 -27.501s-21.334 -17.5 -38.001 -23.5c-2.66699 -1.33301 -8.66699 -3 -18 -5c-2.66699 -0.666992 -11 1.16602 -25 5.49902s-23.333 8.5 -28 12.5
c-23.333 19.333 -41 45.333 -53 78zM329.001 316.002c0 4.66699 -0.331055 8.00098 -0.998047 10.001c-2 18 -8.33301 57.667 -19 119c-0.666992 5.33301 -2.83398 10.166 -6.50098 14.499s-7.83398 6.5 -12.501 6.5c-6.66699 0 -12.667 -6 -18 -18l-38 -76l-22 -45
c-3.33301 -8.66699 -5 -15 -5 -19c0 -13.333 13.667 -20 41 -20l22 1h24c23.333 -2 35 7 35 27z" />
    <glyph glyph-name="B" unicode="B" horiz-adv-x="444" 
d="M399 234.5c-8 17 -16.666 32.168 -25.999 45.501c-8 11.333 -21.667 25.5 -41 42.5s-35 29.167 -47 36.5c-9.33301 5.33301 -14.666 8.66602 -15.999 9.99902c-3.33301 3.33301 -5 6.33301 -5 9c0 5.33301 5 12 15 20l3 3l3 2c32.667 28 49 61.667 49 101
c0 20.667 -5 40.667 -15 60c-10.667 21.333 -27.334 40 -50.001 56s-46.334 24 -71.001 24c-16 0 -34 -4 -54 -12c-8.66699 -4.66699 -16 -7 -22 -7c-10 0 -20 6 -30 18c-3.33301 3.33301 -6 6.66602 -8 9.99902c-8 10.667 -15.667 16 -23 16c-3.33301 0 -8 -1 -14 -3
c-12.667 -5.33301 -23.834 -14.166 -33.501 -26.499s-14.167 -24.5 -13.5 -36.5l2 -27c4 -45.333 6.66699 -73 8 -83c16 -116 24 -209.667 24 -281c0 -58 0.666992 -109 2 -153c0.666992 -16 7 -29.833 19 -41.5s26 -17.5 42 -17.5c26.667 -0 43.334 11.333 50.001 34
c23.333 -18 55.333 -27 96 -27c38.667 0 73.667 8.16699 105 24.5s52 38.5 62 66.5c6.66699 22 10 41.667 10 59c0 12 -1.33301 22.333 -4 31c-3.33301 14 -9 29.5 -17 46.5zM121.001 562.001c-0.666992 11.333 4.33301 20.666 15 27.999s25 11 43 11
c20.667 0 34 -8.66699 40 -26c4.66699 -17.333 7 -34 7 -50c0 -6 -0.333008 -9.66699 -1 -11c-4 -22.667 -9.16699 -40.167 -15.5 -52.5s-19.166 -30.166 -38.499 -53.499c-2.66699 -2.66699 -6.33398 -5 -11.001 -7s-8.66699 -3 -12 -3h-3
c-3.33301 0.666992 -6.5 3.5 -9.5 8.5s-4.83301 9.83301 -5.5 14.5c-4 47.333 -7 94.333 -9 141zM267.001 83.001c-10.667 -6.66699 -22.667 -10 -36 -10c-14.667 0 -29.334 4 -44.001 12s-26.334 16.667 -35.001 26l-2 3l-2 95l-1 42c0 12 -0.166992 22.5 -0.5 31.5
s-0.166016 15.5 0.500977 19.5c0 10.667 1.33301 17.334 4 20.001c6 4.66699 14.667 7 26 7c21.333 0 45 -7 71 -21c26.667 -14 44.5 -27.833 53.5 -41.5s13.5 -34.5 13.5 -62.5c0 -10.667 -0.333008 -17.667 -1 -21s-1 -7 -1 -11
c-3.33301 -34.667 -18.666 -64.334 -45.999 -89.001z" />
    <glyph glyph-name="C" unicode="C" horiz-adv-x="384" 
d="M377 131c-20.667 -35.333 -37.333 -59.667 -50 -73c-17.333 -18 -40 -32.167 -68 -42.5s-56 -15.5 -84 -15.5c-38.667 -0 -71.667 11.833 -99 35.5s-47 54.5 -59 92.5c-4.66699 13.333 -8.66699 44.833 -12 94.5s-5 100.167 -5 151.5c0 60 2.5 107 7.5 141
s18.667 62.667 41 86s57.5 37.666 105.5 42.999c6 0.666992 16.667 1 32 1c7.33301 0 15.666 -0.666992 24.999 -2c6.66699 -2 10.334 -3.33301 11.001 -4c16.667 -5.33301 31.834 -12.833 45.501 -22.5s28.167 -22.5 43.5 -38.5c8 -8 12 -14.667 12 -20
c0 -4 -1.5 -7.16699 -4.5 -9.5s-7.16699 -3.5 -12.5 -3.5c-8.66699 0 -15.334 2 -20.001 6c-32 20 -64.333 30 -97 30c-9.33301 0 -16 -0.333008 -20 -1l-12 -2c-27.333 -11.333 -41 -37.333 -41 -78c0 -4.66699 0.666992 -17 2 -37l2 -31
c2.66699 -61.333 8 -136.333 16 -225c2 -26.667 4 -44.667 6 -54s6 -19 12 -29c14 -22.667 37.333 -34 70 -34c20 0 40 3.33301 60 10c32.667 10 64.334 36.333 95.001 79l21 24c2.66699 4.66699 5.66699 7 9 7s5 -2 5 -6l-2 -6
c-2.66699 -9.33301 -14.334 -31.666 -35.001 -66.999z" />
    <glyph glyph-name="D" unicode="D" horiz-adv-x="443" 
d="M346 626c-34.667 38.667 -71.999 58 -111.999 58c-6 0 -13.667 -0.666992 -23 -2c-12.667 -2 -30.667 -9 -54 -21c-14.667 -8 -24.334 -12 -29.001 -12c-3.33301 0 -7.33301 1.66699 -12 5c-6 4.66699 -12 10.334 -18 17.001c-14 14 -29 21 -45 21c-6 0 -12 -1 -18 -3
c-12 -3.33301 -20.667 -9.33301 -26 -18s-8.33301 -20.667 -9 -36c5.33301 -74 12.833 -170.5 22.5 -289.5s16.167 -196.833 19.5 -233.5c2 -19.333 7.33301 -37 16 -53c5.33301 -10.667 12.333 -19.167 21 -25.5s17.667 -9.5 27 -9.5c10.667 0 21.667 5.66699 33 17h3
c19.333 -19.333 49 -31.333 89 -36c23.333 -3.33301 41 -5 53 -5c56 0 92.667 20.333 110 61s25 96 23 166v55c0 50 -2 88.333 -6 115c-8 113.333 -29.667 189.666 -65 228.999zM300.001 144c-0.666992 -8.66699 -7.00098 -16.6689 -19.001 -24.002
c-12.667 -7.33301 -40.334 -11 -83.001 -11c-18.667 0 -31 0.333008 -37 1l-1 2l-2 27c-1.33301 31.333 -4.66602 78 -9.99902 140l-6 83l-10 128c-5.33301 56 -7.33301 87.667 -6 95c0 12.667 3 22.334 9 29.001c22 22.667 45.667 34 71 34c18 0 34.333 -6.16699 49 -18.5
s25.334 -29.166 32.001 -50.499c3.33301 -8 5.33301 -16.333 6 -25c4.66699 -22 9.16699 -59.333 13.5 -112s6.5 -102 6.5 -148c0 -60 -3.33301 -103.667 -10 -131c-0.666992 -2.66699 -1.66699 -9 -3 -19z" />
    <glyph glyph-name="E" unicode="E" horiz-adv-x="399" 
d="M199 3c-10 -2 -19.6729 -3 -29.0059 -3c-31.333 0 -61.666 9.66699 -90.999 29c-27.333 18 -47.333 42 -60 72s-19 61.667 -19 95c0 48 10.333 94.167 31 138.5s47.667 76.5 81 96.5c7.33301 4 13.333 8.33301 18 13c3.33301 3.33301 5 6.66602 5 9.99902
c0 4 -4.66699 12.667 -14 26c-21.333 31.333 -32 62.333 -32 93c0 28.667 9.33301 58.334 28 89.001c9.33301 14 22.833 25.167 40.5 33.5s36.5 12.5 56.5 12.5c18 0 36.167 -4.16699 54.5 -12.5s33.5 -20.333 45.5 -36s18 -33.834 18 -54.501
c0 -17.333 -3.33301 -32.333 -10 -45s-16 -19 -28 -19c-15.333 0 -28.666 13 -39.999 39c-5.33301 12 -9 19 -11 21c-1.33301 1.33301 -6.66602 9 -15.999 23c-8.66699 12.667 -17 22.334 -25 29.001s-16.333 10 -25 10c-11.333 0 -21.666 -6.33301 -30.999 -19
s-14 -29.334 -14 -50.001c0 -14.667 2.33301 -27.667 7 -39c4 -11.333 9.33301 -20.333 16 -27s15 -13 25 -19l17 -11c2.66699 -2 6.83398 -4.16699 12.501 -6.5s9.5 -3.83301 11.5 -4.5c10 -4.66699 17.333 -9.5 22 -14.5s7 -11.5 7 -19.5
c-0.666992 -8 -3.33398 -14 -8.00098 -18s-12.667 -8.33301 -24 -13c-2.66699 -1.33301 -9 -3.66602 -19 -6.99902c-21.333 -8.66699 -37.666 -16.167 -48.999 -22.5s-20.833 -15.333 -28.5 -27s-12.167 -27.167 -13.5 -46.5l-2 -21c-3.33301 -32 -5 -56 -5 -72
c0 -16.667 1.5 -31.334 4.5 -44.001s8.5 -25 16.5 -37c12.667 -20 29.5 -36 50.5 -48s43.5 -18 67.5 -18c22.667 0 44.334 5.33301 65.001 16c42 21.333 74.333 47 97 77c4.66699 8.66699 10.667 13 18 13c4.66699 0 8.5 -2.16699 11.5 -6.5s3.5 -8.16602 1.5 -11.499
c-56 -89.333 -134 -144 -234 -164z" />
    <glyph glyph-name="F" unicode="F" horiz-adv-x="355" 
d="M151.5 534.5c-2.33301 -5 -3.16895 -13.501 -2.50195 -25.501l5 -59c1.33301 -18 4.16602 -29.333 8.49902 -34s15.166 -8.33398 32.499 -11.001c1.33301 -0.666992 5 -1 11 -1l23 2l22 2l11 -1c19.333 0 32.333 -4.33301 39 -13c7.33301 -10 11 -19.667 11 -29
c0 -14 -7.66699 -22.667 -23 -26c-35.333 -8 -61.666 -13 -78.999 -15c-18 -2.66699 -29.333 -5.66699 -34 -9s-7 -10 -7 -20c0 -9.33301 0.333008 -15.666 1 -18.999l15 -210l1 -11c0 -14 -2.66699 -25.667 -8 -35s-12.666 -15.333 -21.999 -18l-14 -2
c-12 0 -22.667 3.16699 -32 9.5s-15.666 15.166 -18.999 26.499c-7.33301 24 -14.666 96.667 -21.999 218c-0.666992 7.33301 -1 15.666 -1 24.999l-1 3c0 4 0.333008 7.33301 1 10c0 9.33301 -2 16.5 -6 21.5s-12.333 8.16699 -25 9.5
c-12 2.66699 -21.167 7.33398 -27.5 14.001s-9.5 14.334 -9.5 23.001c0 9.33301 3.16699 18.5 9.5 27.5s14.833 15.5 25.5 19.5c5.33301 0.666992 9 2.33398 11 5.00098s3 7 3 13c0 5.33301 -0.333008 9.33301 -1 12s-1 6.33398 -1 11.001l-4 30l-12 94
c-2.66699 18.667 -4 34.667 -4 48c0 19.333 5.66699 35 17 47s26 18 44 18c9.33301 0 17 -1.33301 23 -4c22 -6.66699 42 -15.334 60 -26.001c24.667 -13.333 45 -21.833 61 -25.5s41.333 -6.16699 76 -7.5c22.667 0 45.667 -1 69 -3c11.333 0 21.666 -3 30.999 -9
s14 -14.333 14 -25c0 -12 -5.33301 -23.333 -16 -34c-14 -12.667 -30.667 -20.667 -50 -24s-42.666 -5 -69.999 -5c-39.333 0 -73 5.33301 -101 16c-7.33301 2.66699 -14 4 -20 4c-6.66699 0 -11.167 -2.5 -13.5 -7.5zM66.9971 275.999v6v-6z" />
    <glyph glyph-name="G" unicode="G" horiz-adv-x="454" 
d="M376 519c-4 0 -9.33301 4.00391 -16 12.0039c-26.667 30 -49.667 51.333 -69 64s-40.333 18 -63 16c-16.667 -4 -29 -9 -37 -15s-16 -17.333 -24 -34c-28 -62 -42 -137 -42 -225c0 -34.667 1.66699 -67.167 5 -97.5s8 -53.5 14 -69.5
c8 -22.667 19.833 -40.334 35.5 -53.001s34.5 -19 56.5 -19c16.667 0 33 3.5 49 10.5s23.667 15.833 23 26.5c-1.33301 34.667 -2 72.667 -2 114v10c0 7.33301 -0.833008 12.5 -2.5 15.5s-4.83398 4.5 -9.50098 4.5h-14h-4c-6.66699 0 -12.334 -0.333008 -17.001 -1l-24 -2
c-6 0.666992 -10.333 1.66699 -13 3s-4 4 -4 8c0 3.33301 1 6.66602 3 9.99902s4 5.33301 6 6c54.667 11.333 95.334 19 122.001 23l22 3c12 0 20.167 -3.33301 24.5 -10s7.16602 -16.667 8.49902 -30l2 -23c10 -66 16 -130.667 18 -194c0 -10 -1 -19.667 -3 -29
c-4 -14 -10.333 -24.667 -19 -32s-18.334 -11 -29.001 -11c-12.667 0 -25 5 -37 15c-10.667 9.33301 -20.667 14 -30 14c-7.33301 0 -16.666 -2 -27.999 -6c-18 -6.66699 -36.667 -10 -56 -10c-20 0 -43 4.33301 -69 13c-24 9.33301 -42.5 18.166 -55.5 26.499
s-28.5 21.166 -46.5 38.499c-21.333 22.667 -35.166 47.667 -41.499 75s-9.5 58 -9.5 92c0 21.333 1.16699 44.833 3.5 70.5s3.5 40.5 3.5 44.5l2 21c4 46 20 99.667 48 161c15.333 33.333 37.333 58.833 66 76.5s60 26.5 94 26.5c28.667 0 56.334 -6.5 83.001 -19.5
s48 -30.5 64 -52.5c16.667 -20.667 25 -36.667 25 -48c0 -6 -1.66699 -10.667 -5 -14s-6 -5 -8 -5z" />
    <glyph glyph-name="H" unicode="H" horiz-adv-x="433" 
d="M479 230c-30.667 0 -55.665 -6.33594 -74.998 -19.0029c-9.33301 -5.33301 -16.666 -8 -21.999 -8c-11.333 0 -17 7.66699 -17 23l1 88c2 54 3 110.333 3 169c0 37.333 -0.333008 58.666 -1 63.999c-0.666992 16 -6.83398 29.833 -18.501 41.5s-24.5 17.5 -38.5 17.5
c-14.667 0 -27.167 -5.5 -37.5 -16.5s-16.166 -25.5 -17.499 -43.5c-0.666992 -3.33301 0 -25 2 -65l2 -47c0 -15.333 -3 -25.666 -9 -30.999c-8.66699 -6.66699 -24 -10 -46 -10c-14 0 -25.333 0.333008 -34 1l-47 1c-1.33301 4 -2 7 -2 9v5l2 28l1 27v140
c0 14 -5.83301 26 -17.5 36s-25.167 15 -40.5 15c-12 0 -21.5 -3 -28.5 -9s-11.5 -16 -13.5 -30c-3.33301 -15.333 -8.33301 -83.666 -15 -204.999s-10 -203.666 -10 -246.999c0 -40 4.5 -70.167 13.5 -90.5s26.833 -30.5 53.5 -30.5c6 0 10 0.333008 12 1
c16 3.33301 27.333 8.83301 34 16.5s10 18.5 10 32.5v29c2 41.333 3 82.333 3 123l-1 71c0 16.667 0.833008 28.834 2.5 36.501s5.5 14.167 11.5 19.5l72 5c27.333 3.33301 42.333 -8.66699 45 -36c0 -25.333 0.666992 -58.833 2 -100.5s3 -74.167 5 -97.5
c0.666992 -3.33301 1 -11 1 -23c0.666992 -30 3.66699 -52.667 9 -68c3.33301 -9.33301 9.16602 -16.5 17.499 -21.5s18.5 -7.5 30.5 -7.5c7.33301 0 14.333 1 21 3c12.667 0.666992 22.167 7.16699 28.5 19.5s9.5 27.5 9.5 45.5c0 12 -0.166992 20.167 -0.5 24.5
s-0.5 7.16602 -0.5 8.49902c1.33301 24.667 11.166 45 29.499 61s42.166 24 71.499 24h17l11 -1l13 1c1.33301 2.66699 2 5.33398 2 8.00098c0 8 -5.33301 12 -16 12h-3z" />
    <glyph glyph-name="I" unicode="I" horiz-adv-x="327" 
d="M213 624c18 0 29.667 -0.333984 35 -1.00098c12 -0.666992 21.5 -3.5 28.5 -8.5s10.5 -11.167 10.5 -18.5s-3.66699 -13.5 -11 -18.5s-17.333 -7.83301 -30 -8.5s-21.667 -2.16699 -27 -4.5s-8.66602 -6.5 -9.99902 -12.5
c-1.33301 -5.33301 -2.66602 -16.333 -3.99902 -33c-0.666992 -158.667 -2.33398 -293 -5.00098 -403c0 -14.667 1.83301 -25.167 5.5 -31.5s10.5 -9.5 20.5 -9.5l14 2c8.66699 2.66699 21 4 37 4c9.33301 0.666992 16.5 -0.666016 21.5 -3.99902s7.5 -9.66602 7.5 -18.999
c0 -5.33301 -1.5 -11.333 -4.5 -18s-6.5 -11.334 -10.5 -14.001c-11.333 -6 -42.333 -11.833 -93 -17.5s-96.334 -8.5 -137.001 -8.5c-26.667 -0 -42.334 1.33301 -47.001 4c-4 2.66699 -7.5 7.16699 -10.5 13.5s-4.16699 11.833 -3.5 16.5c2 8 7 14.333 15 19s17 7 27 7h10
c22 1.33301 33 10.666 33 27.999l-1 8c14 155.333 21 287 21 395v39v8c0 11.333 -2 20 -6 26c-3.33301 4 -8.16602 7 -14.499 9s-13 3.5 -20 4.5s-12.167 1.83301 -15.5 2.5c-1.33301 0 -8.33301 1.33301 -21 4c-2.66699 1.33301 -5.33398 4 -8.00098 8s-4 7.33301 -4 10
c0 3.33301 1.33301 6.83301 4 10.5s5.33398 5.83398 8.00098 6.50098c8 3.33301 17.667 5 29 5c12.667 0.666992 42 1 88 1v-2z" />
    <glyph glyph-name="J" unicode="J" horiz-adv-x="294" 
d="M91 636c36 0 73.3301 -4.33203 111.997 -12.999c12.667 -2.66699 22.334 -9.16699 29.001 -19.5s10 -23.5 10 -39.5l2 -176l3 -30c0.666992 -6 4.33398 -10 11.001 -12c6 -2.66699 15.667 -4.33398 29 -5.00098c24.667 0 37 -7.33301 37 -22v-2
c0 -3.33301 -1.33301 -6.33301 -4 -9c-4 -6.66699 -10.667 -10 -20 -10l-16 1c-11.333 0 -19.333 -1.83301 -24 -5.5s-7 -10.167 -7 -19.5c0 -7.33301 0.333008 -12 1 -14c2.66699 -18.667 4.33398 -29.667 5.00098 -33c4 -28 6.33301 -47.833 7 -59.5s1 -28.167 1 -49.5
c0 -26.667 -1.66699 -51 -5 -73c-6 -33.333 -20.167 -60.333 -42.5 -81s-50.833 -33.667 -85.5 -39c-2 -0.666992 -7.33301 -1 -16 -1c-27.333 0 -50.333 11 -69 33c-32.667 36.667 -49 78 -49 124c0 12 1 24 3 36c10 62 40.333 115.333 91 160
c10.667 10 18.167 19.833 22.5 29.5s5.83301 21.167 4.5 34.5c-1.33301 26.667 -2 60.667 -2 102l1 124c0.666992 2 1 6.33301 1 13c0 10 -2.83301 17.167 -8.5 21.5s-14.5 6.83301 -26.5 7.5l-69 1c-4.66699 0.666992 -7 2.66699 -7 6c0 2 1.33301 4.33301 4 7
c10 8.66699 35.667 13 77 13zM69.9971 193.001c-12 -24.667 -18.001 -48.998 -18.001 -72.998c0 -26.667 8 -50.334 24 -71.001c6.66699 -10 14 -15 22 -15s15.667 4.66699 23 14c27.333 33.333 41 66.666 41 99.999c0 20 -4.66699 40 -14 60l-7 16
c-9.33301 22.667 -16.666 31.667 -21.999 27c-20 -12.667 -36.333 -32 -49 -58z" />
    <glyph glyph-name="K" unicode="K" horiz-adv-x="504" 
d="M188 42c0 -14.667 -4.00391 -28.665 -12.0039 -41.998c-8 -12.667 -18 -22.167 -30 -28.5s-23.667 -9.5 -35 -9.5c-16 0 -29.667 5.33301 -41 16s-18.333 25.334 -21 44.001c-6 41.333 -15 129.666 -27 264.999s-19.333 228.666 -22 279.999
c-0.666992 18.667 4 34.334 14 47.001s23.667 20.667 41 24l9 1c14 0 27.167 -4.83301 39.5 -14.5s20.5 -21.5 24.5 -35.5c2 -6 4.83301 -43.167 8.5 -111.5s5.16699 -105.166 4.5 -110.499c-1.33301 -11.333 9.66699 -8 33 10c13.333 10 48 39.333 104 88
c36 32 56.333 49.333 61 52c6.66699 6.66699 13 10 19 10c2.66699 0 5.33398 -0.666992 8.00098 -2c4.66699 -4.66699 7 -9.33398 7 -14.001c0 -2.66699 -1.33301 -6.33398 -4 -11.001c-2 -6.66699 -12 -26.334 -30 -59.001l-43 -79
c-18.667 -32.667 -31.667 -58.5 -39 -77.5s-11 -34.167 -11 -45.5c0 -6.66699 1 -12.5 3 -17.5s4.83301 -10.333 8.5 -16l9.5 -14.5c10.667 -19.333 27.5 -34.666 50.5 -45.999s47.833 -17 74.5 -17c32.667 0 65.334 9.33301 98.001 28c15.333 8.66699 26 13 32 13
c5.33301 0 9.33301 -3 12 -9c1.33301 -2.66699 2 -5.33398 2 -8.00098c0 -8.66699 -9 -19 -27 -31c-37.333 -23.333 -76.666 -35 -117.999 -35c-31.333 0 -62.166 6.5 -92.499 19.5s-56.833 30.833 -79.5 53.5c-11.333 9.33301 -21.666 16.333 -30.999 21
c-4.66699 2.66699 -8.33398 3.83398 -11.001 3.50098s-3.66699 -1.83301 -3 -4.5l5 -42c6 -50.667 9 -82.334 9 -95.001z" />
    <glyph glyph-name="L" unicode="L" horiz-adv-x="473" 
d="M217 59c-4.66699 -0.666992 -8 -2.66895 -10 -6.00195c-2 -4 -3 -11.333 -3 -22c-0.666992 -44 -20 -74 -58 -90c-14 -6 -28.333 -9 -43 -9c-26.667 0 -51.667 9.33301 -75 28c-8.66699 6.66699 -15.5 15.5 -20.5 26.5s-7.5 22.833 -7.5 35.5c0 27.333 12 47.333 36 60
c10 6 16.833 12 20.5 18s5.5 13 5.5 21l-2 20c-7.33301 51.333 -11 147.333 -11 288c0 66.667 0.666992 116 2 148c1.33301 17.333 8.5 31.666 21.5 42.999s27.833 17 44.5 17c6 0 12.667 -1 20 -3c25.333 -9.33301 38.333 -28 39 -56c0 -5.33301 0.333008 -10.333 1 -15
v-33c5.33301 -237.333 10 -369.666 14 -396.999c2 -13.333 5 -22.333 9 -27s11 -7 21 -7l12 1c67.333 6.66699 140.333 15 219 25c16.667 0.666992 27 -5.66602 31 -18.999l2 -9c0 -9.33301 -5.66699 -17.666 -17 -24.999c-4 -2.66699 -33.833 -5.5 -89.5 -8.5
s-99.167 -4.5 -130.5 -4.5h-31zM41 36.998l-0.000976562 -1.00098c0 -4 1.83301 -7.5 5.5 -10.5s7.83398 -4.5 12.501 -4.5c3.33301 0 5.33301 0.333008 6 1c2.66699 0.666992 5.5 2.83398 8.5 6.50098s4.5 6.83398 4.5 9.50098v1
c-1.33301 7.33301 -3.66602 14.333 -6.99902 21c-4.66699 7.33301 -8.33398 8.66602 -11.001 3.99902c-12 -12 -18.333 -21 -19 -27z" />
    <glyph glyph-name="M" unicode="M" 
d="M259 373c-24 0 -47.002 13.001 -69.002 39.001c-16 18.667 -28.333 28 -37 28c-6.66699 0 -11 -4.33301 -13 -13s-3 -21 -3 -37c1.33301 -74.667 2 -146.667 2 -216l-1 -121c0 -12.667 -1.66699 -24 -5 -34c-4 -10.667 -11.667 -20.167 -23 -28.5
s-24.666 -12.5 -39.999 -12.5c-14.667 0 -27.5 4.83301 -38.5 14.5s-18.167 22.834 -21.5 39.501c-2 9.33301 -4.16699 86.333 -6.5 231s-3.5 250 -3.5 316c5.33301 36 25.333 54 60 54c15.333 0 28.833 -4 40.5 -12s19.167 -18.667 22.5 -32
c6 -23.333 15.667 -45.666 29 -66.999c18 -27.333 37.167 -51.833 57.5 -73.5s38.166 -32.5 53.499 -32.5c18 0 36.333 9.33301 55 28c12.667 12 25.334 28.667 38.001 50s30 53.666 52 96.999c1.33301 4.66699 4.33301 11 9 19c10 16 23.333 24 40 24
c6.66699 0 11 -0.333008 13 -1c17.333 -2.66699 27.333 -13.667 30 -33l-1 -58c-3.33301 -118.667 -5 -208 -5 -268c0 -67.333 1.33301 -117.333 4 -150c1.33301 -16 3.83301 -27.5 7.5 -34.5s9.16699 -10.5 16.5 -10.5c6 0 12.333 1.66699 19 5c25.333 14 46 42.333 62 85
c1.33301 7.33301 5.5 13.666 12.5 18.999s13.833 8 20.5 8c6 0 10.833 -2.83301 14.5 -8.5s5.16699 -13.5 4.5 -23.5l-8 -30c-6.66699 -26 -13.167 -44.833 -19.5 -56.5s-19.833 -29.5 -40.5 -53.5c-31.333 -29.333 -66.666 -47 -105.999 -53
c-2 -0.666992 -6.33301 -1 -13 -1c-17.333 0 -33.333 6.33301 -48 19s-26 29.667 -34 51c-4.66699 10 -7 77.333 -7 202c0 55.333 0.333008 88.666 1 99.999l3 57l1 6c0.666992 2 1 5 1 9c0 10.667 -4 16 -12 16c-11.333 0 -31.333 -13.333 -60 -40
c-19.333 -11.333 -37.333 -17 -54 -17z" />
    <glyph glyph-name="N" unicode="N" 
d="M136 291l-10.999 -205.998c-2.66699 -16.667 -9.83398 -30.167 -21.501 -40.5s-25.5 -15.5 -41.5 -15.5c-20.667 0 -37.334 8.33301 -50.001 25c-8 11.333 -12 64.333 -12 159c0 93.333 2.33301 186.333 7 279l1 40c0.666992 24.667 12.667 43 36 55
c8.66699 4.66699 18 7 28 7c17.333 0 32 -7.33301 44 -22c2.66699 -3.33301 45 -85 127 -245l43 -82c6 -10.667 13 -16 21 -16h2c5.33301 0.666992 9 3.16699 11 7.5s3 11.166 3 20.499c0.666992 60 2.16699 135.833 4.5 227.5s4.5 140.834 6.5 147.501
c0.666992 0.666992 1 1.66699 1 3s0.333008 2.66602 1 3.99902c1.33301 7.33301 8.33301 12.333 21 15c15.333 1.33301 25.333 -4.33398 30 -17.001c4 -9.33301 11.667 -42.666 23 -99.999s18 -99 20 -125c2.66699 -30 10.834 -57.167 24.501 -81.5s31.334 -43 53.001 -56
s45.167 -18.833 70.5 -17.5c3.33301 0.666992 9.66602 1 18.999 1c8.66699 0 15 -0.5 19 -1.5s7.33301 -3.16699 10 -6.5c4 -5.33301 6 -9.33301 6 -12c0 -5.33301 -3.33301 -11.666 -10 -18.999c-1.33301 -2.66699 -8.33301 -5.33398 -21 -8.00098
c-12.667 -4 -28.334 -6 -47.001 -6c-21.333 0 -45.666 3.66699 -72.999 11c-8.66699 4 -15.667 6 -21 6c-10.667 0 -15.334 -9.66699 -14.001 -29c2 -44 -2.16699 -84.333 -12.5 -121s-28.166 -59.334 -53.499 -68.001c-5.33301 -2.66699 -11.666 -4 -18.999 -4
c-18.667 -0 -36.334 13.333 -53.001 40c-8 12 -35.667 64 -83 156l-10 19c-42.667 86 -67.667 131.667 -75 137c-0.666992 -2.66699 -2 -23 -4 -61z" />
    <glyph glyph-name="O" unicode="O" horiz-adv-x="497" 
d="M415 262c0 -16 7.33301 -24.001 22 -24.001c5.33301 0 9 0.333008 11 1l38 10l29 9c8 2.66699 15 4 21 4c2.66699 0 5 -1.33301 7 -4s3 -5 3 -7c0 -4 -1.5 -7.33301 -4.5 -10s-8.5 -5.33398 -16.5 -8.00098c-9.33301 -1.33301 -16.666 -3 -21.999 -5l-29 -5
c-8.66699 -2.66699 -21.667 -5 -39 -7c-10 -1.33301 -17.833 -4.66602 -23.5 -9.99902s-10.167 -13.333 -13.5 -24c-16 -64 -45.667 -111.667 -89 -143c-36.667 -26 -77.334 -39 -122.001 -39c-26.667 0 -51.667 4.83301 -75 14.5s-42.666 23.5 -57.999 41.5
c-36 45.333 -54 94 -54 146c0 11.333 1.66699 27 5 47c14.667 82.667 47.334 162.334 98.001 239.001l33 49l32 49c13.333 22 30.666 33 51.999 33l9 -1c13.333 -1.33301 24.166 -6.16602 32.499 -14.499s13.833 -19.166 16.5 -32.499l11 -15
c4.66699 -6.66699 9.16699 -11.834 13.5 -15.501s10.833 -7.16699 19.5 -10.5c16 -6 29.5 -13.833 40.5 -23.5s20.5 -21.834 28.5 -36.501c21.333 -40.667 31 -84.667 29 -132c-3.33301 -40 -5 -65.333 -5 -76zM332 264.499c4 -1.66699 7.66895 -2.49902 11.002 -2.49902
l4 1c2.66699 1.33301 5.16699 4.16602 7.5 8.49902s3.5 7.83301 3.5 10.5v1c-1.33301 17.333 -4.33301 34 -9 50c-6.66699 38 -15.667 67.667 -27 89c-10.667 18 -22.334 27 -35.001 27c-6.66699 0 -12.334 -3.33301 -17.001 -10s-7 -15.667 -7 -27
c0 -18 6.16699 -40.667 18.5 -68s26.5 -52 42.5 -74c1.33301 -2 4 -3.83301 8 -5.5zM141.502 291.5c-8.33301 -28.333 -12.502 -58.168 -12.502 -89.501c0 -54 17.667 -96.667 53 -128c16 -14 32.667 -21 50 -21c13.333 0 27.333 4 42 12c34 18.667 57.333 47 70 85
c6.66699 20 10 33.333 10 40c0 6 -1.33301 11.333 -4 16c-2.66699 4 -7.66699 9.5 -15 16.5s-13.666 12.5 -18.999 16.5c-30.667 30 -53.667 57.833 -69 83.5s-23 52.5 -23 80.5c0 6 -1.66699 10.833 -5 14.5s-7.66602 5.5 -12.999 5.5c-10 0 -17 -6 -21 -18
c-20.667 -47.333 -35.167 -85.166 -43.5 -113.499z" />
    <glyph glyph-name="P" unicode="P" horiz-adv-x="375" 
d="M6 720c3.33301 8 9.33398 13.834 18.001 17.501s18 5.5 28 5.5c14 0 24.833 -3 32.5 -9s14.334 -13.333 20.001 -22s9.5 -14.334 11.5 -17.001c6 -9.33301 13 -14 21 -14c4.66699 0 9.33398 1.33301 14.001 4c22.667 14.667 41.667 22 57 22
c9.33301 0 16.666 -1.33301 21.999 -4c18 -2.66699 35 -11 51 -25c13.333 -12 24.666 -24.833 33.999 -38.5s15.333 -24.167 18 -31.5c14 -37.333 24.5 -70.833 31.5 -100.5s10.5 -58.167 10.5 -85.5c0 -45.333 -8.66699 -85.833 -26 -121.5s-46 -59.834 -86 -72.501
c-23.333 -7.33301 -53.333 -11.666 -90 -12.999c-13.333 -1.33301 -21.5 -3.33301 -24.5 -6s-4.5 -8.66699 -4.5 -18c0 -18.667 1 -47 3 -85l2 -27c2 -22 -3.33301 -40.667 -16 -56s-28 -23 -46 -23c-11.333 0 -21.833 3.5 -31.5 10.5s-16.834 16.833 -21.501 29.5
c-6.66699 20 -11 44 -13 72c-4 52.667 -8.5 149.5 -13.5 290.5s-7.5 235.833 -7.5 284.5c0 13.333 2 24.333 6 33zM158.001 292.001c5.33301 0 14.333 2.66699 27 8c21.333 9.33301 38 21 50 35c42.667 54.667 64 112 64 172c0 38 -6.33301 71.167 -19 99.5
s-33 47.5 -61 57.5c-5.33301 2.66699 -12.666 4 -21.999 4c-18.667 0 -34.834 -6.5 -48.501 -19.5s-20.5 -28.833 -20.5 -47.5c1.33301 -104 3.66602 -194.667 6.99902 -272c0.666992 -24.667 8.33398 -37 23.001 -37z" />
    <glyph glyph-name="Q" unicode="Q" horiz-adv-x="518" 
d="M404 216c-11.333 -14 -24.333 -33.002 -39 -57.002c-5.33301 -9.33301 -8 -16.666 -8 -21.999c0 -6.66699 5.33301 -14 16 -22c10 -7.33301 21 -13.833 33 -19.5s21.333 -8.5 28 -8.5c15.333 0 28.333 9 39 27c3.33301 6.66699 8 12.5 14 17.5s12 6.5 18 4.5
c5.33301 -2 8.83301 -4.66699 10.5 -8s2.5 -8.33301 2.5 -15c0.666992 -16.667 -3.33301 -33.334 -12 -50.001c-10 -17.333 -23.5 -31.666 -40.5 -42.999s-34.5 -17.666 -52.5 -18.999c-40 -3.33301 -73.333 6.33398 -100 29.001c-22 18 -47 27 -75 27l-15 -1
c-3.33301 -0.666992 -10.666 -1 -21.999 -1c-56 0 -102.333 16 -139 48c-27.333 22 -44.5 46.667 -51.5 74s-10.5 61 -10.5 101c0 75.333 16.333 148 49 218c16.667 37.333 38.667 67.666 66 90.999s54.666 39 81.999 47c25.333 7.33301 40 11.666 44 12.999
c16 4 31.333 6 46 6c50 0 90.333 -23.333 121 -70c17.333 -27.333 30.333 -56.833 39 -88.5s13.667 -67.167 15 -106.5c0 -63.333 -19.333 -120.666 -58 -171.999zM271 264.998c5.33301 -5.33301 13.6689 -15 25.002 -29c6 -9.33301 14.667 -14 26 -14
c5.33301 0.666992 8.83301 2.5 10.5 5.5s3.5 8.5 5.5 16.5c10 50 15 95.667 15 137c0 16.667 -1.66699 39 -5 67c-6.66699 50 -23.667 90 -51 120c-16.667 18 -32.334 27 -47.001 27c-12 0 -26.667 -5.66699 -44 -17c-40 -27.333 -64 -64 -72 -110l-5 -30
c-10.667 -50.667 -16 -95.667 -16 -135c0 -50 7.33301 -93 22 -129c6 -16 17.333 -29.667 34 -41s34 -17 52 -17c18.667 0 28 8.33301 28 25l3 66c0.666992 20.667 -4.33301 36.334 -15 47.001c-3.33301 3.33301 -5 7.33301 -5 12c0 3.33301 1.16699 6.16602 3.5 8.49902
s5.16602 3.5 8.49902 3.5l6 -2c8.66699 -2 15.667 -5.66699 21 -11z" />
    <glyph glyph-name="R" unicode="R" horiz-adv-x="516" 
d="M121.5 157.5c2.33301 -37.667 4.83594 -66.166 7.50293 -85.499c0.666992 -2 1 -5.66699 1 -11c0 -14.667 -4 -27 -12 -37s-19 -17.333 -33 -22l-15 -2c-12 0 -23 3.66699 -33 11s-17.333 17.333 -22 30c-2 9.33301 -4.83301 90 -8.5 242s-5.83398 265.667 -6.50098 341
c0.666992 14.667 3.66699 25.667 9 33s14 12.666 26 15.999l13 2c10 0 19.333 -2.66699 28 -8s15.667 -12.666 21 -21.999l4 -11c6.66699 -12 14 -18 22 -18c4.66699 0 10 1 16 3c18.667 6 36.667 9 54 9c28.667 0 53.5 -9.5 74.5 -28.5s36.833 -42.667 47.5 -71
s16 -56.166 16 -83.499c0 -34.667 -7 -67 -21 -97s-36.333 -54.667 -67 -74c-7.33301 -4.66699 -12.666 -8.66699 -15.999 -12s-5 -7 -5 -11c0 -4.66699 3.66699 -12.667 11 -24c19.333 -27.333 37.666 -49 54.999 -65c17.333 -17.333 36 -30.833 56 -40.5
s38 -14.5 54 -14.5c21.333 0 39.666 5.33301 54.999 16c14.667 9.33301 25.667 23.833 33 43.5s13.333 44.167 18 73.5c2 14.667 4.33301 24.667 7 30c3.33301 6.66699 7.66602 10.334 12.999 11.001c10 -0.666992 15 -8 15 -22c0 -4.66699 -0.333008 -8 -1 -10
s-1 -4.66699 -1 -8c-3.33301 -35.333 -8.5 -62.833 -15.5 -82.5s-19.5 -39.834 -37.5 -60.501c-32 -34.667 -73.333 -52 -124 -52c-21.333 0 -42.333 3.5 -63 10.5s-38.667 16.833 -54 29.5c-36.667 30 -64.667 64 -84 102c-5.33301 11.333 -10.666 19.666 -15.999 24.999
s-13.333 9 -24 11c-0.666992 -6.66699 0.166016 -28.834 2.49902 -66.501zM128.003 324.001c3.33301 0 7 0.665039 11 1.99805s7 3 9 5c46.667 48.667 70 108.334 70 179.001c0 13.333 -0.333008 22 -1 26c-0.666992 10.667 -4.16699 19.334 -10.5 26.001s-15.5 10 -27.5 10
c-16 0 -30.5 -6 -43.5 -18s-19.5 -25.667 -19.5 -41c0.666992 -34.667 2 -74.667 4 -120s4 -68.333 6 -69h2z" />
    <glyph glyph-name="S" unicode="S" horiz-adv-x="443" 
d="M363 416.5c-8.66699 -26.333 -16.0029 -45.165 -22.0029 -56.498c-3.33301 -5.33301 -8 -8 -14 -8c-10 0 -22 5.66699 -36 17c-6 7.33301 -9 14.666 -9 21.999c0 3.33301 0.333008 5.66602 1 6.99902l5 20v3c0 8.66699 -5 13 -15 13
c-12 -1.33301 -30.667 -9.33301 -56 -24s-40 -25.334 -44 -32.001c-3.33301 -8.66699 -5 -15.667 -5 -21c0 -8.66699 1.33301 -15.667 4 -21s8.33398 -10.333 17.001 -15s22.667 -10.667 42 -18c41.333 -16 66.333 -27 75 -33l33 -22
c17.333 -12.667 28.333 -18.334 33 -17.001l31 14c51.333 24.667 79 37 83 37s8.83301 -3.16699 14.5 -9.5s8.5 -13.166 8.5 -20.499c0 -12.667 -9.33301 -25.334 -28 -38.001c-51.333 -26 -81.333 -41.667 -90 -47c-0.666992 0 -1 -1 -1 -3
c0 -3.33301 1.33301 -7.66602 4 -12.999l6 -16l6 -32c2.66699 -8.66699 5 -22.667 7 -42c0.666992 -2 1 -6.33301 1 -13c0 -19.333 -2.83301 -41 -8.5 -65s-12.5 -43 -20.5 -57c-27.333 -51.333 -66.666 -77 -117.999 -77c-23.333 0 -46.666 5.33301 -69.999 16
s-38.333 22.334 -45 35.001c-16 22.667 -24 48 -24 76l2 24c10 62 36.667 112.667 80 152l3 3c4.66699 4.66699 7 8.66699 7 12c0 4 -3.33301 8 -10 12c-3.33301 2 -24 8.66699 -62 20l-61 20c-6 2 -17 7.66699 -33 17c-16.667 10 -28.167 18.667 -34.5 26
s-11.166 18.666 -14.499 33.999c-4 17.333 -6 33.666 -6 48.999c0 30 6.33301 55 19 75c11.333 18 26.5 35.833 45.5 53.5s37.5 32.5 55.5 44.5c60.667 40.667 117 61 169 61c14.667 0 25.667 -1 33 -3c6 -2.66699 10 -4 12 -4c16.667 -6 28.167 -11.5 34.5 -16.5
s12.5 -15.167 18.5 -30.5c1.33301 -2.66699 2 -5.66699 2 -9s-2.66699 -15.666 -8 -36.999c-2.66699 -15.333 -8.33398 -36.166 -17.001 -62.499zM313.497 28.501c-3.66699 19.667 -8.5 36.499 -14.5 50.499c-7.33301 15.333 -16 20.333 -26 15
c-12.667 -6 -26.167 -22.333 -40.5 -49s-25.833 -54 -34.5 -82l-2 -9c0 -6.66699 2.66699 -13.667 8 -21c8.66699 -10 23.667 -15 45 -15c18.667 0 35 5.33301 49 16s21 27 21 49c0 10.667 -1.83301 25.834 -5.5 45.501z" />
    <glyph glyph-name="T" unicode="T" horiz-adv-x="471" 
d="M242 29c-16 14 -26.3359 31.3369 -31.0029 52.0039s-7 48.667 -7 84v53c0 89.333 1.33301 182.333 4 279l1 23c0 8.66699 -1.66699 15.167 -5 19.5s-9 6.83301 -17 7.5c-35.333 0 -69.833 1.5 -103.5 4.5s-56.5 12.167 -68.5 27.5c-10 12 -15 25.667 -15 41
c0 10 2.66699 18.333 8 25c12 15.333 26 23 42 23c5.33301 0 10.333 -1 15 -3c59.333 -9.33301 194.666 -15 405.999 -17h24c12.667 -0.666992 24.334 -4 35.001 -10c12 -8 18 -20.667 18 -38c0 -22.667 -8 -36.334 -24 -41.001c-12 -4.66699 -39 -7.33398 -81 -8.00098
c-4.66699 0 -25.667 -1.33301 -63 -4c-14.667 -2 -25.334 -4.66699 -32.001 -8c-3.33301 -2 -5.66602 -9.83301 -6.99902 -23.5s-2 -23.834 -2 -30.501l-9 -131c-10 -128.667 -15 -207.667 -15 -237c0.666992 -15.333 6.33398 -27.833 17.001 -37.5
s23.334 -14.5 38.001 -14.5c10 0 19.667 2.66699 29 8s22 15 38 29l29 24l5 3c1.33301 0.666992 3.33301 1 6 1c3.33301 0 5.33301 -0.333008 6 -1c6 -2 9 -5.66699 9 -11c0 -3.33301 -1.66699 -9 -5 -17c-23.333 -35.333 -47.5 -61.333 -72.5 -78
s-53.167 -24.334 -84.5 -23.001c-37.333 0 -66.666 9.66699 -87.999 29z" />
    <glyph glyph-name="U" unicode="U" horiz-adv-x="422" 
d="M314 37c-14 -12 -30.835 -21.1699 -50.502 -27.5029s-39.834 -9.5 -60.501 -9.5c-30.667 0 -57.334 6.33301 -80.001 19c-43.333 22.667 -74.666 64.834 -93.999 126.501s-29 137.5 -29 227.5c0 74 3.66699 134.667 11 182l10 69
c2.66699 14.667 8.83398 25.334 18.501 32.001s23.5 11 41.5 13c28.667 0 48 -14.667 58 -44l1 -7c2 -22 5.33301 -83.833 10 -185.5s8 -187.5 10 -257.5c0.666992 -24 5.83398 -41.167 15.501 -51.5s25.167 -15.5 46.5 -15.5c19.333 0 36.5 6 51.5 18s24.167 27 27.5 45
c7.33301 40 11 60.667 11 62c6 34.667 10.333 63.667 13 87c4.66699 49.333 9.33398 107 14.001 173l3 37l5 68v11c0.666992 14.667 6.33398 23 17.001 25c12.667 2 21.167 -1.5 25.5 -10.5s6.5 -22.5 6.5 -40.5c2 -62 3 -134 3 -216
c0 -89.333 -2.66699 -150.666 -8 -183.999c-10.667 -62 -36.334 -110.667 -77.001 -146z" />
    <glyph glyph-name="V" unicode="V" horiz-adv-x="406" 
d="M439 642c-9.33301 -81.333 -25.335 -195.17 -48.002 -341.503s-37.334 -225.166 -44.001 -236.499c-9.33301 -22.667 -17.833 -39 -25.5 -49s-17.167 -15 -28.5 -15c-6.66699 0 -14 2 -22 6c-16.667 8.66699 -31.834 20.167 -45.501 34.5s-28.167 36.5 -43.5 66.5
c-14 34.667 -46.167 119.167 -96.5 253.5s-78.166 211.5 -83.499 231.5c-1.33301 6.66699 -2 11.334 -2 14.001c0 20 8.33301 38.833 25 56.5s35 26.5 55 26.5c6.66699 0 13 -1 19 -3c0 1.33301 5 -0.666992 15 -6c25.333 -14.667 41.333 -42 48 -82
c2.66699 -15.333 22.334 -82 59.001 -200s56.334 -178.333 59.001 -181c5.33301 -6 10.333 -9 15 -9c6.66699 0 12 4 16 12c8.66699 38 22.5 106.833 41.5 206.5s32.833 177.167 41.5 232.5c2 12.667 3.66699 22.334 5 29.001c1.33301 3.33301 4.33301 6 9 8
s9.33398 3 14.001 3c6.66699 0 12 -2.33301 16 -7s5.33301 -11 4 -19c0 -6.66699 -1 -17 -3 -31z" />
    <glyph glyph-name="W" unicode="W" horiz-adv-x="598" 
d="M192 126c8.66699 0 14.999 3.00195 18.999 9.00195c18.667 24.667 31.5 45.167 38.5 61.5s13.5 41.833 19.5 76.5c4 17.333 6 37.666 6 60.999c0.666992 18 5.83398 32.667 15.501 44s22.167 17 37.5 17c12.667 0 23.334 -4.16699 32.001 -12.5
s14.334 -20.166 17.001 -35.499l12 -73l12 -69c4 -24.667 7.66699 -42.334 11 -53.001s7.33301 -17.834 12 -21.501s11.334 -5.5 20.001 -5.5c14 0 27.333 11 40 33c7.33301 12.667 15 28 23 46c11.333 22.667 19.666 48.5 24.999 77.5s10 67.833 14 116.5
c0.666992 4.66699 1 14 1 28c0 16 -1 37 -3 63c-2.66699 21.333 -4 40.666 -4 57.999c-0.666992 6.66699 2.16602 13.334 8.49902 20.001s14.5 10.667 24.5 12h3c4.66699 0 8.33398 -1.33301 11.001 -4c3.33301 -2.66699 5.66602 -7 6.99902 -13s2 -10.667 2 -14
c8 -54.667 12 -103.334 12 -146.001c0 -102 -23.667 -203.333 -71 -304c-18.667 -36.667 -45 -61 -79 -73c-16.667 -6 -31.667 -9 -45 -9c-32 0 -59 17.333 -81 52c-4.66699 9.33301 -8.66699 18.333 -12 27c-4 9.33301 -8.33301 18 -13 26
c-2 4.66699 -4.83301 8.83398 -8.5 12.501s-7.16699 5.5 -10.5 5.5c-4 0.666992 -7.83301 -1.5 -11.5 -6.5s-13.167 -19.5 -28.5 -43.5c-20 -32.667 -37 -55.667 -51 -69s-31 -20 -51 -20c-24.667 0 -47 12 -67 36c-12.667 14.667 -21.5 29.5 -26.5 44.5
s-11.833 42.167 -20.5 81.5c-4.66699 17.333 -11.167 79 -19.5 185s-12.5 176.333 -12.5 211c0 28 10.333 47 31 57c4.66699 2.66699 10.667 4 18 4c10 0 22.333 -5 37 -15c36 -24 52.667 -57 50 -99c-0.666992 -14 4.66602 -78.333 15.999 -193s18 -173.667 20 -177
c5.33301 -6 12 -9 20 -9z" />
    <glyph glyph-name="X" unicode="X" horiz-adv-x="580" 
d="M274 179l-22.0029 33c-0.666992 2 -2.33398 3 -5.00098 3c-6 0 -13 -5.33301 -21 -16c-8.66699 -10 -26.334 -34.667 -53.001 -74s-45 -65.333 -55 -78c-24 -31.333 -46.333 -47 -67 -47c-11.333 0 -22.666 5 -33.999 15s-17 20.667 -17 32c0 6 1 11.333 3 16
c6.66699 14 26 48.167 58 102.5s55.333 92.833 70 115.5c4.66699 6.66699 9 15.667 13 27s6 21 6 29c0 6 -1 11 -3 15c-21.333 34 -44.666 76.333 -69.999 127s-37.666 80.334 -36.999 89.001c-2 4 -3 8.33301 -3 13c0 9.33301 4.5 17.333 13.5 24s18.833 10 29.5 10
c5.33301 0 10.666 -1.66699 15.999 -5c5.33301 -4 16.5 -19.667 33.5 -47s29.5 -48.666 37.5 -63.999c22 -39.333 35.333 -61.333 40 -66c9.33301 -9.33301 17.333 -14 24 -14s14.667 5.66699 24 17l90 103.5c32.667 36.333 51.667 56.5 57 60.5c9.33301 6 18 9 26 9
c12.667 0 25.5 -6.83301 38.5 -20.5s19.5 -25.834 19.5 -36.501c0 -8.66699 -3.33301 -17.334 -10 -26.001c-13.333 -18.667 -31.666 -42.334 -54.999 -71.001l-66 -85l-37 -47c-6.66699 -7.33301 -10 -15 -10 -23c0 -6 3 -12.667 9 -20l27 -29l19 -21
c22.667 -26 40.5 -43.833 53.5 -53.5s29.167 -14.5 48.5 -14.5c13.333 0 27.166 2.83301 41.499 8.5s34.166 15.167 59.499 28.5l21 10l10 6c4.66699 2.66699 9.33398 4 14.001 4c6 0 10.5 -2 13.5 -6s4.5 -9 4.5 -15c0 -4.66699 -1 -8 -3 -10
c-35.333 -42 -66.166 -73.167 -92.499 -93.5s-55.166 -32.166 -86.499 -35.499c-3.33301 -0.666992 -9.66602 -1 -18.999 -1c-21.333 0 -39 3.33301 -53 10c-17.333 7.33301 -32 18.333 -44 33s-18.667 22.667 -20 24c-4.66699 4.66699 -17 22.667 -37 54z" />
    <glyph glyph-name="Y" unicode="Y" horiz-adv-x="346" 
d="M150 407c21.333 0 38.6641 3.33105 51.9971 9.99805s25.333 20.334 36 41.001s20.667 52.334 30 95.001l11 47c3.33301 12 10 22.833 20 32.5s20 14.5 30 14.5c6.66699 0 12.334 -1.33301 17.001 -4c15.333 -7.33301 23 -19 23 -35s-10 -105.833 -30 -269.5
s-33.333 -260.834 -40 -291.501l-3 -21c-1.33301 -10 -4.33301 -18 -9 -24c-10 -12.667 -23.667 -19 -41 -19c-10.667 0 -20 2.66699 -28 8s-13 12.666 -15 21.999c-3.33301 16.667 -5 50.334 -5 101.001c0 56 3 108.167 9 156.5s14.667 82.833 26 103.5
c3.33301 6.66699 5 12 5 16c0 6 -3.66699 10 -11 12c-2 0 -5.33301 -1.16699 -10 -3.5s-9 -4.83301 -13 -7.5c-18.667 -14 -36.667 -24.5 -54 -31.5s-35 -10.5 -53 -10.5c-8 0 -13.333 0.333008 -16 1c-11.333 2 -21 4.5 -29 7.5s-16.333 7.83301 -25 14.5
c-6 3.33301 -11.667 14 -17 32c-6.66699 18 -10 40.667 -10 68c0 40 8.66699 83 26 129c4.66699 12 9.83398 21.167 15.501 27.5s13.834 9.5 24.501 9.5c4.66699 0 10 -1 16 -3c14.667 -2.66699 22 -12.667 22 -30c0 -3.33301 -0.666992 -34.666 -2 -93.999l-1 -26l-2 -43
c0 -23.333 17 -35 51 -35z" />
    <glyph glyph-name="Z" unicode="Z" horiz-adv-x="420" 
d="M225 586c32 0 48.6689 0.330078 50.002 0.99707c4.66699 0.666992 10.334 1 17.001 1c5.33301 0 8.66602 -0.333008 9.99902 -1c6 -1.33301 12.167 -5.33301 18.5 -12s9.5 -13.667 9.5 -21c0 -6 -1 -12 -3 -18c-8.66699 -31.333 -25.667 -73.166 -51 -125.499
s-66 -132.166 -122 -239.499c-2.66699 -4 -4.83398 -7.66699 -6.50098 -11l-4.5 -9c-2.66699 -4.66699 -4 -9 -4 -13c0 -8 5.66699 -12 17 -12l18 -1c6 0 14.333 0.666992 25 2l25 2c20.667 2.66699 39 4 55 4c58 0 96.333 7 115 21c9.33301 8 16.666 12 21.999 12
c4 0 7 -2 9 -6c4.66699 -8.66699 7 -17 7 -25c0 -6 -1.66699 -10.667 -5 -14c-14.667 -14.667 -30.667 -25.5 -48 -32.5s-42 -14.167 -74 -21.5c4 1.33301 -40.333 -7.66699 -133 -27c-48 -8.66699 -82.333 -15.334 -103 -20.001l-18 -2c-21.333 0 -37 11 -47 33
c-2.66699 4.66699 -4 10.667 -4 18c0 5.33301 1.66699 12 5 20l15 32c114.667 244.667 183 379.334 205 404.001c5.33301 5.33301 8 10 8 14c0 6.66699 -6 11 -18 13c-6 0.666992 -20.667 1.66699 -44 3c-28 0.666992 -54 2 -78 4s-38.667 4.66699 -44 8
c-2.66699 0.666992 -4 3.33398 -4 8.00098c0 8.66699 7.66699 13 23 13h4c14.667 -1.33301 65.667 -2 153 -2z" />
    <glyph glyph-name="bracketleft" unicode="[" horiz-adv-x="193" 
d="M121 -38l-21.998 -6.00098c-24.667 -7.33301 -42 -11 -52 -11c-9.33301 0 -16.833 2.83301 -22.5 8.5s-9.5 15.167 -11.5 28.5c-4 23.333 -7.16699 72 -9.5 146s-3.5 146 -3.5 216c0 42.667 0.333008 67.667 1 75c2.66699 56 4.33398 125 5.00098 207
c0 17.333 2.33301 28.666 7 33.999c7.33301 8.66699 31 14.334 71 17.001c21.333 1.33301 31.666 2 30.999 2l37 2l16 1c8.66699 0 15 -1.5 19 -4.5s6 -8.5 6 -16.5c0 -8.66699 -6.33301 -14.667 -19 -18c-6.66699 -0.666992 -11 -1.66699 -13 -3
c-12.667 -2.66699 -19.667 -4 -21 -4c-2.66699 0 -10 -1.33301 -22 -4c-16.667 -3.33301 -28.334 -8.16602 -35.001 -14.499s-10 -15.833 -10 -28.5l2 -20c12 -78 18 -169.667 18 -275c0 -68 -1.33301 -124.333 -4 -169l-2 -26c-1.33301 -17.333 -2 -29.333 -2 -36
c0 -50 13 -75.333 39 -76c2 -0.666992 4.66699 -1 8 -1c4 0 7 0.333008 9 1c7.33301 0 12.666 -0.666992 15.999 -2s5 -3.66602 5 -6.99902c0 -4.66699 -2 -7.33398 -6 -8.00098z" />
    <glyph glyph-name="bracketright" unicode="]" horiz-adv-x="192" 
d="M99.5 679c14.333 4 27.5 5.99609 39.5 5.99609c23.333 0 36.666 -11.333 39.999 -34c4 -23.333 7.16699 -71 9.5 -143s3.5 -142.667 3.5 -212c0 -46.667 -0.333008 -74 -1 -82c-2 -52 -3 -104 -3 -156c-0.666992 -7.33301 -1 -24.666 -1 -51.999
c-1.33301 -17.333 -4 -28 -8 -32c-4 -5.33301 -11.833 -9.16602 -23.5 -11.499s-27.167 -4.16602 -46.5 -5.49902l-32 -3l-37 -2l-15 -1c-13.333 0 -21.666 5 -24.999 15v3c0 10.667 6 17.667 18 21c6.66699 0.666992 11 1.66699 13 3c11.333 2 18.666 3.33301 21.999 4
l22 3c16.667 4 28.167 9 34.5 15s9.5 15 9.5 27l-2 21c-12 82 -18 171 -18 267c0 46.667 1.66699 106 5 178l2 26c1.33301 16 2 27.333 2 34c0 51.333 -13 77.333 -39 78h-14c-9.33301 0 -15.666 0.333008 -18.999 1c-3.33301 1.33301 -5 4 -5 8
c0 4.66699 2 7.33398 6 8.00098l35 8c4 1.33301 13.167 4 27.5 8z" />
    <glyph glyph-name="a" unicode="a" horiz-adv-x="393" 
d="M79 -3c-12.667 0 -23.667 4.66699 -33 14c-14.667 11.333 -25.5 26.666 -32.5 45.999s-10.5 41.333 -10.5 66c0 39.333 8.33301 79.5 25 120.5s39.167 75.167 67.5 102.5s59.5 41 93.5 41c7.33301 0 13 -0.333008 17 -1c32 -17.333 48 -43 48 -77
c0 -16 -3 -31.667 -9 -47c-0.666992 -4.66699 -4.33398 -7 -11.001 -7c-2.66699 0 -5.16699 0.333008 -7.5 1s-4.16602 1 -5.49902 1c-2.66699 2.66699 -6.16699 7.66699 -10.5 15s-7.5 12 -9.5 14c-4 5.33301 -9.33301 8 -16 8c-11.333 0 -22 -6.66699 -32 -20
c-8.66699 -11.333 -15.5 -26.166 -20.5 -44.499s-7.5 -36.5 -7.5 -54.5c0 -19.333 3 -35 9 -47s14.667 -18 26 -18c15.333 0 33.666 21.667 54.999 65c6 11.333 10.333 18.333 13 21c1.33301 1.33301 7.16602 3.83301 17.499 7.5l21.5 7.5c7.33301 0 11 -6.33301 11 -19
c0 -5.33301 -0.666992 -12.666 -2 -21.999l-3 -21c-4 -22.667 -6 -38.334 -6 -47.001c0 -15.333 4.33301 -23 13 -23c13.333 0 40.333 19.333 81 58l13.5 13c6.33301 6 10.833 9 13.5 9s4.33398 -2.33301 5.00098 -7c0 -8.66699 -7.33301 -25.667 -22 -51
s-32.167 -48.333 -52.5 -69s-39.166 -31 -56.499 -31c-26.667 0 -46 26.333 -58 79c-55.333 -55.333 -97 -83 -125 -83z" />
    <glyph glyph-name="b" unicode="b" horiz-adv-x="322" 
d="M60 -12c-3.33301 0 -6.00098 0.336914 -8.00098 1.00391s-5 1 -9 1c-26 0 -40.333 2.33301 -43 7c-0.666992 4 9.83301 100.667 31.5 290s33.834 289.666 36.501 300.999c6 36.667 17 64.667 33 84s34.333 29 55 29c15.333 0 29.666 -5.66699 42.999 -17
c14 -12 25 -28.5 33 -49.5s12 -45.167 12 -72.5c0 -46 -11.667 -96.333 -35 -151s-59.333 -111.667 -108 -171c24 28 47 48.167 69 60.5s41.333 18.5 58 18.5h8c0.666992 -0.666992 1.66699 -1 3 -1c18.667 -0.666992 34.167 -6.5 46.5 -17.5s21.5 -24.5 27.5 -40.5
c5.33301 -14.667 8 -26 8 -34c0 -12.667 -4.33301 -33.334 -13 -62.001c-10.667 -36.667 -27.667 -70.334 -51 -101.001s-52.666 -52.334 -87.999 -65.001c-12 -5.33301 -24.667 -8 -38 -8c-14 0 -27 2.66699 -39 8l-7 3l-6 2c-4 -10 -10.333 -15 -19 -15zM173.999 485.504
c14.667 41 22 75.167 22 102.5c0 11.333 -1.33301 20 -4 26s-6.33398 9 -11.001 9c-5.33301 0 -10.333 -3.33301 -15 -10c-7.33301 -10.667 -14.666 -33 -21.999 -67c-7.33301 -36.667 -13 -85 -17 -145h2c15.333 15.333 30.333 43.5 45 84.5zM204.999 249.004
c-0.666992 6.66699 -4.66797 9.33301 -12.001 8c-4 0 -12.333 -6.33301 -25 -19c-14.667 -15.333 -28.334 -37.666 -41.001 -66.999s-21.667 -65 -27 -107c-0.666992 -2.66699 -1 -7.66699 -1 -15c0 -10.667 2.66699 -16 8 -16c8 0 20 11 36 33
c16.667 23.333 31.334 49.666 44.001 78.999s19.334 54.333 20.001 75c0 10 -0.666992 19.667 -2 29z" />
    <glyph glyph-name="c" unicode="c" horiz-adv-x="290" 
d="M130 274.5c-12.667 -27.667 -20.3311 -55.502 -22.998 -83.502l-2 -42c0 -40.667 9.33301 -61 28 -61c11.333 0 26.666 5.66699 45.999 17s46.333 29.333 81 54c3.33301 2 6.33301 3 9 3c5.33301 0 10.333 -1.66699 15 -5s6.66699 -6.66602 6 -9.99902
c0 -14.667 -5.33301 -33 -16 -55c-12 -25.333 -31.333 -46.333 -58 -63s-59 -24 -97 -22c-36.667 -0.666992 -65.834 14.5 -87.501 45.5s-32.5 71.5 -32.5 121.5c0 41.333 10.333 78.333 31 111c19.333 31.333 44 56.5 74 75.5s58.667 28.5 86 28.5
c20.667 0 37 -5.83301 49 -17.5s18 -28.167 18 -49.5c0 -24.667 -8 -54.667 -24 -90c-9.33301 -19.333 -21 -27.666 -35 -24.999c-14 1.33301 -21 12 -21 32l2 28l2 25c0 16 -4.66699 24 -14 24c-12 0 -24.333 -13.833 -37 -41.5z" />
    <glyph glyph-name="d" unicode="d" horiz-adv-x="402" 
d="M236 323l2.99707 49.0029c8 73.333 19.833 134.666 35.5 183.999s33.834 85 54.501 107c18.667 20.667 37.667 31 57 31c16.667 0 30.5 -7 41.5 -21s16.5 -30.667 16.5 -50c0 -44 -11.667 -98.167 -35 -162.5s-62 -131.5 -116 -201.5
c-2.66699 -37.333 -5.66699 -65.333 -9 -84c-6 -44.667 -9 -78.667 -9 -102c0 -35.333 7.66699 -53 23 -53c18 0 47 22 87 66c2 2 4.66699 3 8 3c4.66699 0 8 -1.66699 10 -5c2 -2 -2.33301 -12 -13 -30c-11.333 -19.333 -26.666 -39 -45.999 -59s-39.666 -36 -60.999 -48
c-8.66699 -4.66699 -17 -7 -25 -7c-14.667 0 -26.167 7.66699 -34.5 23s-12.5 34.666 -12.5 57.999c0 10 0.666992 19.667 2 29l-27 -28c-14 -14 -30.5 -26.333 -49.5 -37s-37.5 -16 -55.5 -16c-24 0 -44 9.16699 -60 27.5s-24 41.5 -24 69.5
c0 39.333 10.833 82.166 32.5 128.499s46.5 79.833 74.5 100.5c6 5.33301 15 9.5 27 12.5s23.667 4.5 35 4.5c4 0 9.33301 -0.666992 16 -2c18 -4 31 -11.667 39 -23l12 -19c0.666992 2.66699 1.66699 21 3 55zM381.997 616.003c-5.33301 0 -11 -5.33203 -17 -15.999
c-8.66699 -13.333 -17.167 -33.666 -25.5 -60.999s-14.5 -60 -18.5 -98l-2 -15c0 -0.666992 0.333008 -1 1 -1c21.333 29.333 38.833 60.666 52.5 93.999s20.5 59.666 20.5 78.999c0 12.667 -3.33301 18.667 -10 18h-1zM172.997 222.004c-7.33301 0 -14.001 -4 -20.001 -12
c-8.66699 -12.667 -16 -31.167 -22 -55.5s-9 -46.5 -9 -66.5c0 -28 6.33301 -39.667 19 -35c14 4.66699 27.667 20.667 41 48s20 52.333 20 75l-1 11c-5.33301 23.333 -14.666 35 -27.999 35z" />
    <glyph glyph-name="e" unicode="e" horiz-adv-x="313" 
d="M77.5 327c28.333 29.333 59.168 44.002 92.501 44.002c28 0 52.333 -9.33301 73 -28s31 -40.334 31 -65.001c0 -25.333 -12.667 -48.166 -38 -68.499s-62.333 -35.166 -111 -44.499c-14 -2.66699 -22 -10.334 -24 -23.001c-3.33301 -16.667 -5 -27.667 -5 -33
c0 -13.333 4 -24.333 12 -33s17.333 -13 28 -13c10 0 20.667 3 32 9s26.666 16.333 45.999 31c17.333 12.667 31.333 22 42 28s20 9 28 9s15 -2.83301 21 -8.5s9 -11.834 9 -18.501c0 -14.667 -11 -31 -33 -49c-22.667 -18.667 -50.167 -34 -82.5 -46s-62.833 -18 -91.5 -18
c-34 0 -60.667 9.16699 -80 27.5s-29 46.166 -29 83.499c0 26 4.33301 54.333 13 85c16 58 38.167 101.667 66.5 131zM126.002 236.002l15 3c10 2.66699 20.5 11.167 31.5 25.5s16.5 26.833 16.5 37.5v1c0 4.66699 -1.66699 9 -5 13s-7.33301 6.66699 -12 8
c-1.33301 0.666992 -3.33301 1 -6 1c-3.33301 0 -6 -1 -8 -3s-3.66699 -5.33301 -5 -10c-4.66699 -11.333 -15.667 -35.333 -33 -72c-1.33301 -4 0.666992 -5.33301 6 -4z" />
    <glyph glyph-name="f" unicode="f" horiz-adv-x="264" 
d="M226 238c11.333 0 18.999 -3.99805 22.999 -11.998l2 -8c0 -3.33301 -1.16699 -6 -3.5 -8s-6.5 -4 -12.5 -6c-14 -6.66699 -24.167 -14.167 -30.5 -22.5s-9.83301 -22.5 -10.5 -42.5l1 8l-3 -66c-2.66699 -61.333 -7.66699 -115.333 -15 -162
c-7.33301 -47.333 -16 -72 -26 -74c-8 -1.33301 -18.833 1 -32.5 7s-22.5 12.667 -26.5 20c-4.66699 8.66699 -7 36 -7 82l2 117l1 41v24l-26 -4c-10.667 -2.66699 -20.667 -4 -30 -4c-21.333 0 -32 8.33301 -32 25c0 15.333 6.33301 24.333 19 27
c36 11.333 60.333 27.5 73 48.5s19 52.833 19 95.5c0 20.667 -0.333008 34 -1 40l-1 51c0 22 0.333008 36 1 42c4.66699 77.333 17 142.333 37 195s49.667 83 89 91c8 2 16.333 3 25 3c15.333 0 29.666 -3.66699 42.999 -11c12.667 -8 22.334 -20.5 29.001 -37.5
s10 -40.833 10 -71.5c0 -34 -5 -69.667 -15 -107c-10 -38.667 -24.667 -73.167 -44 -103.5s-41.666 -52.5 -66.999 -66.5c-8 -4.66699 -13.5 -11.834 -16.5 -21.501s-4.5 -22.834 -4.5 -39.501l1 -53c14 2 23.667 3 29 3zM240.999 447.002
c11.333 24.667 20.333 54.833 27 90.5s10 68.167 10 97.5c0 34 -4.66699 51 -14 51c-2.66699 0 -5.66699 -1.66699 -9 -5c-21.333 -27.333 -36.833 -57.833 -46.5 -91.5s-14.5 -73.167 -14.5 -118.5l2 -47v-3c0 -7.33301 2 -11.333 6 -12c14 0 27 12.667 39 38z" />
    <glyph glyph-name="g" unicode="g" horiz-adv-x="335" 
d="M339 90c14 0 -3.66699 -24.668 -53 -74.001c-3.33301 -3.33301 -5 -7.33301 -5 -12c0 -36 -3.66699 -79.667 -11 -131c-8 -52.667 -19.333 -98.167 -34 -136.5s-31.667 -62.166 -51 -71.499c-5.33301 -3.33301 -15 -5 -29 -5c-14.667 0 -26 1 -34 3
c-39.333 7.33301 -61.333 19 -66 35c-4.66699 15.333 -7.66699 23.666 -9 24.999c-0.666992 24 5.83301 49.5 19.5 76.5s36.834 64.167 69.501 111.5c22 32 38 57 48 75c10 17.333 15 32.333 15 45c0 2 -0.666992 5.66699 -2 11c-10.667 -6 -25.834 -12.333 -45.501 -19
s-38.167 -10 -55.5 -10c-38.667 0 -66.667 17 -84 51c-8 28 -12 55.333 -12 82c0 36 6 69.333 18 100s27.333 55.5 46 74.5s38 29.833 58 32.5c10 2 19.333 3 28 3c12.667 0 25.667 -1.66699 39 -5c11.333 -3.33301 17 -5.33301 17 -6c16.667 -6 30.167 -16.667 40.5 -32
s15.5 -31.666 15.5 -48.999c0 -12 -3.16699 -22 -9.5 -30s-14.833 -12 -25.5 -12c-7.33301 0 -13 2.83301 -17 8.5s-7.66699 14.834 -11 27.501c-4 13.333 -7.66699 22.333 -11 27s-8.33301 7 -15 7c-4.66699 0 -11 -2 -19 -6c-13.333 -8 -23.833 -22.5 -31.5 -43.5
s-11.5 -44.167 -11.5 -69.5c0 -22.667 3 -41.334 9 -56.001s14.667 -22 26 -22c5.33301 0 10.333 1.33301 15 4c12.667 6 28.667 18.667 48 38c12.667 12.667 22.334 21.334 29.001 26.001s14 7 22 7c6 0 11.333 -1.33301 16 -4c8 -2.66699 12 -13.334 12 -32.001l-2 -32
l-2 -41c29.333 19.333 47.666 29 54.999 29zM165 -150.001c-16.667 -16 -30.832 -32.1709 -42.499 -48.5039s-17.5 -30.166 -17.5 -41.499c0 -12 6 -20.333 18 -25l8 -2c10 0 20 6.66699 30 20c9.33301 12.667 17.166 28.334 23.499 47.001s9.5 35.334 9.5 50.001
c0 10.667 -1.33301 18.334 -4 23.001c-0.666992 0 -9 -7.66699 -25 -23z" />
    <glyph glyph-name="h" unicode="h" horiz-adv-x="290" 
d="M91 162c18.667 52.667 36.668 95.999 54.001 129.999c16.667 32.667 36.334 49 59.001 49c11.333 0 19.333 -4.66699 24 -14s7 -23.333 7 -42c0 -10.667 -0.833008 -23.834 -2.5 -39.501s-2.5 -25.167 -2.5 -28.5c-3.33301 -25.333 -5 -44 -5 -56
c0 -18.667 3.66699 -29 11 -31h2l8 1c4.66699 0.666992 8.5 1.66699 11.5 3s5.83301 3.66602 8.5 6.99902c0.666992 0.666992 2.5 2.83398 5.5 6.50098s6.5 5.5 10.5 5.5c1.33301 0 2.33301 -0.333008 3 -1c2.66699 0 4 -2.66699 4 -8l-5 -20l-6 -20
c-7.33301 -16.667 -17.833 -30.167 -31.5 -40.5s-27.167 -15.5 -40.5 -15.5c-11.333 0 -20.833 3.66699 -28.5 11s-12.5 18 -14.5 32l-3 22c-1.33301 14.667 -3 26 -5 34s-5 17 -9 27c-1.33301 3.33301 -3 3.33301 -5 0c-6.66699 -16.667 -15.667 -42.667 -27 -78
c-11.333 -36.667 -21.5 -61.667 -30.5 -75s-22.5 -20.333 -40.5 -21c-14 -0.666992 -23.833 -0.166992 -29.5 1.5s-9.5 5 -11.5 10s-2.66699 13.833 -2 26.5c2.66699 39.333 12.667 136.833 30 292.5s28 243.834 32 264.501c0.666992 5.33301 3.5 9.33301 8.5 12
s11.167 4 18.5 4c8.66699 0 17 -1.83301 25 -5.5s13 -8.5 15 -14.5c5.33301 -17.333 8 -30.666 8 -39.999c0 -14 -5 -44.667 -15 -92c-20 -92.667 -38.333 -192.667 -55 -300c-1.33301 -6 -2.33301 -14 -3 -24s-0.666992 -18 0 -24c1.33301 -2 2.66602 -3 3.99902 -3
s2.66602 0.666992 3.99902 2z" />
    <glyph glyph-name="i" unicode="i" horiz-adv-x="170" 
d="M118 457c0 8 -2.83301 14.5 -8.5 19.5s-12.834 7.5 -21.501 7.5c-9.33301 0 -18.666 -3 -27.999 -9c-10 -6.66699 -18.333 -16.167 -25 -28.5s-10 -23.833 -10 -34.5c0 -11.333 3 -20.166 9 -26.499s14 -9.5 24 -9.5c15.333 0 28.333 6.16699 39 18.5
s16.667 26.166 18 41.499l2 12c0.666992 0.666992 1 3.66699 1 9zM92 121c0 36.667 4.33105 89 12.998 157c3.33301 30 5 48.333 5 55c0 8.66699 -2 13 -6 13h-1c-6 -1.33301 -17.167 -3.16602 -33.5 -5.49902s-28.333 -9 -36 -20s-14.167 -29.167 -19.5 -54.5
c-8.66699 -41.333 -13 -87 -13 -137c0 -46.667 3.66699 -86.334 11 -119.001c8.66699 -28 23.334 -42 44.001 -42c20 0 41.167 12.333 63.5 37s38.5 53.334 48.5 86.001c1.33301 5.33301 2 8.66602 2 9.99902c0 6.66699 -2.66699 10 -8 10
c-3.33301 0 -6.33301 -1.33301 -9 -4l-17.5 -18c-7 -7.33301 -12.667 -12.333 -17 -15s-9.16602 -4 -14.499 -4c-8 0.666992 -12 17.667 -12 51z" />
    <glyph glyph-name="j" unicode="j" horiz-adv-x="323" 
d="M131 441c0 -4.66699 0.333008 -7.33496 1 -8.00195c6 -15.333 11 -25.666 15 -30.999s10 -8.33301 18 -9c9.33301 -1.33301 17.5 0.5 24.5 5.5s11.833 12.5 14.5 22.5c9.33301 29.333 14 51.333 14 66c0 24.667 -9 37.334 -27 38.001c-18 0 -32.667 -6.16699 -44 -18.5
s-17 -27.833 -17 -46.5l1 -11v-8zM85 170.999l-2.00293 -25.0049c0 -17.333 -2.33301 -41.166 -7 -71.499s-10 -61.833 -16 -94.5c-10 -57.333 -17.833 -106.666 -23.5 -147.999s-8.5 -80 -8.5 -116c0 -55.333 8.66699 -98.666 26 -129.999s47 -47 89 -47
c54.667 0 92.834 28.833 114.501 86.5s32.5 141.167 32.5 250.5c0 19.333 -0.666992 43 -2 71c-1.33301 30.667 -2 51.667 -2 63c0 31.333 2.66699 57.333 8 78s15 40.334 29 59.001l2 9c0 9.33301 -4.33301 14 -13 14c-6 0 -12 -1 -18 -3c-28 -4.66699 -43.667 -7 -47 -7
c-5.33301 0 -9.16602 1.83301 -11.499 5.5s-4.16602 10.5 -5.49902 20.5l-2 41c-0.666992 26.667 -2.16699 48 -4.5 64s-8 29.833 -17 41.5s-23.167 17.5 -42.5 17.5c-22.667 0 -45.834 -14.667 -69.501 -44s-44.167 -60.666 -61.5 -93.999s-28.666 -57.333 -33.999 -72
c-1.33301 -4 -2 -7 -2 -9c0 -4.66699 1.5 -8.5 4.5 -11.5s6.5 -4.5 10.5 -4.5c5.33301 0 10 2 14 6c7.33301 7.33301 16 15 26 23l16.5 14c7 6 11.5 10.667 13.5 14c1.33301 0 2.33301 -0.333008 3 -1zM226.997 63.4941c4.66699 -23.667 6.99902 -54.5 6.99902 -92.5
c0 -48.667 -3.33301 -101 -10 -157s-15 -102.833 -25 -140.5s-20.333 -55.167 -31 -52.5c-8 0 -12 5.33301 -12 16c-2 12.667 -3.66699 33.834 -5 63.501s-2 61.167 -2 94.5c0 83.333 4.33301 155.666 13 216.999s23.334 91.333 44.001 90
c9.33301 -2 16.333 -14.833 21 -38.5z" />
    <glyph glyph-name="k" unicode="k" horiz-adv-x="406" 
d="M405 133l-1.00098 -9.00293c-8.66699 -42.667 -25.5 -78.667 -50.5 -108s-51.5 -44 -79.5 -44c-30 0 -55.667 18.667 -77 56c-20 38 -32.333 56.667 -37 56h-2c-7.33301 0 -13.666 -6 -18.999 -18c-4.66699 -12 -9.66699 -31.333 -15 -58
c-4.66699 -23.333 -8 -38.333 -10 -45c-2.66699 -9.33301 -7.66699 -15.666 -15 -18.999s-17.666 -5 -30.999 -5c-14.667 0 -28.167 3.66699 -40.5 11s-20.833 17 -25.5 29c-2 5.33301 6 60.666 24 165.999c15.333 89.333 35 196.333 59 321
c21.333 111.333 34 171.333 38 180c0.666992 2 8.16699 5 22.5 9s26.166 6 35.499 6c8.66699 0 14.5 -2.16699 17.5 -6.5s4.5 -13.5 4.5 -27.5c0 -35.333 -9 -106.333 -27 -213l-11 -69c-1.33301 -1.33301 -1.33301 -2.66602 0 -3.99902v-4c2 0.666992 4.66699 2.66699 8 6
c28 31.333 52 54.833 72 70.5s39 23.5 57 23.5c16 0 29.667 -7.66699 41 -23c3.33301 -5.33301 5 -12.666 5 -21.999c0 -24 -11.667 -56.5 -35 -97.5s-57.333 -87.167 -102 -138.5c10.667 -6.66699 19 -15.167 25 -25.5s14 -26.5 24 -48.5
c6.66699 -15.333 12.667 -26.666 18 -33.999c4 -6.66699 9.33301 -10 16 -10c8 0 17.667 5.66699 29 17c12 12 26.667 31 44 57l7 10c10 12.667 17.667 19 23 19s8 -2.66699 8 -8zM213.999 257.997c17.333 22 32.5 44.499 45.5 67.499s18.5 37.5 16.5 43.5
c-8.66699 -4 -20 -15.667 -34 -35c-16 -20.667 -30.5 -42.167 -43.5 -64.5s-19.5 -37.166 -19.5 -44.499c6 0.666992 17.667 11.667 35 33z" />
    <glyph glyph-name="l" unicode="l" horiz-adv-x="261" 
d="M19 44c10.667 -25.333 26.667 -44.668 48 -58.001s44 -20 68 -20c18 0 34.667 3.66699 50 11s27.333 18 36 32c10.667 16.667 18.834 35.334 24.501 56.001s8.5 39 8.5 55c0 19.333 -3.66699 29 -11 29c-3.33301 0 -6.83301 -3 -10.5 -9s-7.83398 -15.333 -12.501 -28
c-12 -27.333 -23.667 -48.5 -35 -63.5s-26.333 -22.5 -45 -22.5c-16.667 0 -29.834 8.5 -39.501 25.5s-14.5 37.167 -14.5 60.5c0 26 5.66699 49 17 69l33 59l44 76c44.667 94.667 69 147.667 73 159c8 18.667 13.667 34.5 17 47.5s6 29.5 8 49.5
c3.33301 28 6.33301 49 9 63l3 43c0 56 -11.667 92.667 -35 110c-6 2.66699 -14.333 4 -25 4c-33.333 0 -65.666 -19.667 -96.999 -59c-30.667 -38.667 -56 -93.167 -76 -163.5s-34.5 -141.833 -43.5 -214.5s-13.5 -132.667 -13.5 -180c-0 -53.333 6.33301 -97 19 -131z
M202 700.498c8 7.66699 15.332 11.499 21.999 11.499c7.33301 0 13.5 -3.5 18.5 -10.5s7.5 -15.833 7.5 -26.5c0 -6 -0.333008 -9.66699 -1 -11c-8.66699 -52 -23.167 -108 -43.5 -168s-45.166 -114 -74.499 -162l-7 -9l-8 -10l-1 9l10 90l15 97
c2 12.667 8.5 40.5 19.5 83.5s18.167 68.167 21.5 75.5c6 12.667 13 22.834 21 30.501z" />
    <glyph glyph-name="m" unicode="m" horiz-adv-x="585" 
d="M124.5 59.5c-15.667 -20.333 -33.168 -38.168 -52.501 -53.501c-6 -4 -12.333 -6 -19 -6c-11.333 0 -22 4.16699 -32 12.5s-15.333 17.833 -16 28.5c-3.33301 44.667 -5 93.334 -5 146.001l1 81v13c0 6.66699 1.33301 12.334 4 17.001c2 3.33301 5.66699 7 11 11
s10.5 7.5 15.5 10.5s9.5 5.5 13.5 7.5c10.667 5.33301 17.334 8 20.001 8c12.667 0.666992 22 -11.666 28 -36.999c8 -34.667 12 -82 12 -142c1.33301 -1.33301 2.66602 -2 3.99902 -2c4 0 9.33301 3.33301 16 10c10 7.33301 18.667 16.5 26 27.5s16.333 27.167 27 48.5
c12.667 26 25.334 46 38.001 60c9.33301 10.667 21.666 16 36.999 16c10.667 0 20.5 -3.5 29.5 -10.5s15.5 -17.167 19.5 -30.5c6.66699 -20.667 10.5 -40.334 11.5 -59.001s1.5 -40.334 1.5 -65.001c0 -1.33301 0.666992 -2 2 -2l2 1c7.33301 8.66699 23 31 47 67
c26.667 40.667 45.334 67 56.001 79c14.667 16.667 29.667 25 45 25l12 -2c17.333 -6 26 -36.333 26 -91l-2 -63l-2 -46c0 -8.66699 0.666992 -16.334 2 -23.001c1.33301 -5.33301 3 -8 5 -8s4.66699 1.66699 8 5c2.66699 2.66699 10 13.334 22 32.001
c7.33301 14 15.666 26.333 24.999 37c4.66699 5.33301 9.33398 8 14.001 8c3.33301 0 6.16602 -1.33301 8.49902 -4s3.5 -5.66699 3.5 -9c0 -4.66699 -0.333008 -8 -1 -10c-7.33301 -29.333 -14.333 -52.333 -21 -69c-8 -19.333 -19.333 -35 -34 -47s-33 -18 -55 -18
c-17.333 0 -31.166 5.5 -41.499 16.5s-15.5 26.167 -15.5 45.5c0 18 1.33301 40 4 66l2 28c0.666992 14.667 0.333984 21.667 -0.999023 21l-20 -34c-14 -22.667 -26.667 -41.667 -38 -57c-14.667 -20 -30 -35 -46 -45s-31 -15 -45 -15c-20.667 0 -35.334 11.333 -44.001 34
c-8 20.667 -14.667 54.334 -20 101.001c0 3.33301 -0.333008 5.66602 -1 6.99902c-0.666992 2 -1.5 3.83301 -2.5 5.5s-2.5 1.16699 -4.5 -1.5l-25 -40c-21.333 -36.667 -39.833 -65.167 -55.5 -85.5z" />
    <glyph glyph-name="n" unicode="n" horiz-adv-x="343" 
d="M146 274c17.333 20 30.834 33.666 40.501 40.999s20.167 11 31.5 11c40 0 60 -30.667 60 -92c0 -18 -2.33301 -46 -7 -84c-3.33301 -24.667 -5 -41 -5 -49c0 -10.667 1.66699 -16.667 5 -18c0.666992 -0.666992 2 -1 4 -1c4.66699 0 9.33398 3 14.001 9
c7.33301 8 14.166 18.167 20.499 30.5l10.5 20.5l5 6c3.33301 3.33301 6.33301 5 9 5h2c4.66699 -0.666992 7 -4 7 -10c0 -13.333 -7.33301 -34.333 -22 -63c-26 -50.667 -51.333 -76 -76 -76c-10 0 -17 6.33301 -21 19c-4 13.333 -6 31 -6 53l2 60l2 51
c0 28.667 -4.66699 43 -14 43c-2.66699 0 -5.33398 -1 -8.00098 -3c-19.333 -11.333 -38 -32.166 -56 -62.499s-32.667 -63.166 -44 -98.499c-10.667 -32.667 -16.667 -51.667 -18 -57c-2 -6 -8.66699 -9 -20 -9c-2.66699 0 -10.667 -0.166992 -24 -0.5
s-23.333 8.5 -30 26.5s-10 45.667 -10 83c0 34.667 0.666992 70.167 2 106.5s2.66602 58.5 3.99902 66.5s12.333 18.167 33 30.5s36.334 18.166 47.001 17.499c6 -1.33301 10.667 -8 14 -20c2 -8.66699 3.66699 -23 5 -43c0 -19.333 0.333008 -30.666 1 -33.999
c0 -4 1.33301 -4.66699 4 -2c5.33301 5.33301 18 19.666 38 42.999z" />
    <glyph glyph-name="o" unicode="o" horiz-adv-x="344" 
d="M330 187c-18.667 -11.333 -32.501 -20.834 -41.501 -28.501s-15.5 -16.834 -19.5 -27.501c-19.333 -47.333 -42.166 -83.166 -68.499 -107.499s-53.5 -36.5 -81.5 -36.5c-21.333 0 -41 7 -59 21c-18.667 13.333 -33.334 32 -44.001 56s-16 50.667 -16 80
c0 70.667 28.333 139 85 205c7.33301 9.33301 14.666 14 21.999 14l9 -2c7.33301 -3.33301 11 -13 11 -29c0 -15.333 -5.33301 -49 -16 -101c-13.333 -58.667 -20 -100 -20 -124c0 -36.667 11.667 -55 35 -55c8.66699 0 17.334 1.66699 26.001 5
c11.333 5.33301 21.833 17.333 31.5 36s16.834 39 21.501 61c4 20 4.66699 31.333 2 34l-18 20c-16 16 -26.667 29.5 -32 40.5s-8 25.5 -8 43.5c0 22 4.33301 38.5 13 49.5s20.667 16.5 36 16.5s31.333 -5 48 -15c17.333 -10.667 31.5 -24.167 42.5 -40.5
s16.5 -33.166 16.5 -50.499c0 -12.667 -2.33301 -23.667 -7 -33c-0.666992 -2 -1 -4.33301 -1 -7c0 -5.33301 2.66699 -8 8 -8s12.333 2 21 6s14.667 7 18 9c5.33301 3.33301 10 5 14 5c6 0 9 -2.66699 9 -8l-2 -6c-10 -8 -21.667 -15.667 -35 -23zM215.999 264.999
c-12.667 13.333 -23.332 20.001 -31.999 20.001c-6.66699 0 -10 -4.33301 -10 -13c-0.666992 -10 5.5 -22 18.5 -36s24.167 -21 33.5 -21c6.66699 0 10 4.33301 10 13c-0.666992 11.333 -7.33398 23.666 -20.001 36.999z" />
    <glyph glyph-name="p" unicode="p" horiz-adv-x="321" 
d="M116 287c-2 0 -2.99902 2.66504 -2.99902 7.99805v4c4 20 6 38.667 6 56c0 20.667 -4.66699 29.334 -14 26.001c-40.667 -10.667 -61.667 -20 -63 -28c-6.66699 -55.333 -12.334 -99.666 -17.001 -132.999c-17.333 -134.667 -29.333 -235 -36 -301
c-8 -69.333 -12 -123 -12 -161c0 -33.333 3.33301 -50.333 10 -51c10.667 -1.33301 25.667 3.16699 45 13.5s31 20.5 35 30.5c3.33301 7.33301 7.33301 40 12 98l9 106l8 92h1c45.333 -31.333 82.333 -47 111 -47c36 0 61 18 75 54c14.667 37.333 22 85.333 22 144
c0 48.667 -5 86 -15 112c-11.333 27.333 -27.333 41 -48 41c-14.667 0 -30.667 -4.66699 -48 -14l-74 -47c-2 -2 -3.33301 -3 -4 -3zM99.001 101.998c3.33301 30.667 10 57.667 20 81c10 24 22.167 43.333 36.5 58s26.833 22 37.5 22c16 0 24.333 -14 25 -42
c0.666992 -3.33301 1 -10 1 -20c0 -34 -6.33301 -62.833 -19 -86.5s-29.334 -35.5 -50.001 -35.5c-15.333 0 -31.666 6.66699 -48.999 20l-2 2v1z" />
    <glyph glyph-name="q" unicode="q" horiz-adv-x="377" 
d="M283 303l-10.999 106.002c-1.33301 5.33301 -7.33301 10 -18 14c-2.66699 0.666992 -8.5 2.66699 -17.5 6s-16.5 5 -22.5 5c-14 0 -21 -9.33301 -21 -28c0 -8.66699 1.66699 -26.334 5 -53.001v-4c0 -5.33301 -1.33301 -8 -4 -8l-4 2c-51.333 40 -91 60 -119 60
c-24.667 0 -42.334 -15 -53.001 -45c-11.333 -31.333 -17.333 -77.666 -18 -138.999c-0 -56.667 7.83301 -98.834 23.5 -126.501s38.167 -41.5 67.5 -41.5c31.333 0 70.333 16.333 117 49h1c0.666992 -15.333 2 -34.666 4 -57.999c6.66699 -145.333 13 -225 19 -239
c5.33301 -10.667 17.333 -20.334 36 -29.001c18.667 -9.33301 30.667 -14 36 -14c7.33301 0 12.5 4.66699 15.5 14s4.5 25.666 4.5 48.999c0 48 -6 132 -18 252c0 2.66699 -0.666992 11.334 -2 26.001c6 6 22 13.667 48 23l13 5l10 5c3.33301 3.33301 5 6.66602 5 9.99902
c0 6.66699 -5.66699 10 -17 10c-16 0 -37 -5.33301 -63 -16c-2 25.333 -7.66699 80.333 -17 165zM191.001 147.002c-3.33301 -3.33301 -10 -6.5 -20 -9.5s-20 -4.5 -30 -4.5c-22.667 0 -37.667 8.66699 -45 26c-14.667 42 -22 75.667 -22 101c0 28.667 9 43 27 43
c17.333 0 43 -15 77 -45c4 -4 6.33301 -7.33301 7 -10c2 -6 3 -15.667 3 -29l5 -69v-1z" />
    <glyph glyph-name="r" unicode="r" horiz-adv-x="306" 
d="M157 146l-27.998 -80.5029c-14.667 -42.333 -26.667 -74.833 -36 -97.5s-16 -33.667 -20 -33c-20.667 4.66699 -37.667 13.834 -51 27.501s-20.333 30.5 -21 50.5c-0.666992 56 2.5 125 9.5 207s17.167 127 30.5 135c20.667 11.333 35.167 18.833 43.5 22.5
s14.833 5.16699 19.5 4.5c8.66699 -2.66699 13 -16.667 13 -42c0 -11.333 -1.33301 -30.333 -4 -57c-0.666992 -6 -1.33398 -13.167 -2.00098 -21.5s-1 -17.166 -1 -26.499c0 -17.333 3 -26 9 -26c3.33301 -2 7.16602 0.166992 11.499 6.5s10.5 16.833 18.5 31.5
c16.667 30.667 32.167 55.5 46.5 74.5s31.5 30.833 51.5 35.5l12 -1c26 -4.66699 39 -26.667 39 -66c0 -17.333 -3 -37.5 -9 -60.5s-13.167 -43.167 -21.5 -60.5s-15.5 -26.666 -21.5 -27.999c-2 -0.666992 -6 -1 -12 -1c-20.667 0 -31 13.333 -31 40
c0 10 1.33301 24.333 4 43l3 31v3c0 6 -1.16699 9.33301 -3.5 10s-4.5 0 -6.5 -2c-4 -4 -18.333 -43.667 -43 -119z" />
    <glyph glyph-name="s" unicode="s" horiz-adv-x="334" 
d="M266 264.5c-8.66699 -17 -19.999 -25.5 -33.999 -25.5c-10.667 0 -22.334 5.33301 -35.001 16c-4.66699 4.66699 -7 8.66699 -7 12l2 8c2 6 3 9.66699 3 11c0 6 -3.33301 9 -10 9c-16 -1.33301 -32 -7.5 -48 -18.5s-24 -21.5 -24 -31.5
c0 -6.66699 1.5 -11.334 4.5 -14.001s9.5 -5.66699 19.5 -9l21 -9c25.333 -8 41.666 -14.333 48.999 -19c18 -12 28.667 -17.333 32 -16c26 6 47.667 9 65 9c21.333 0 32 -4 32 -12c0 -4.66699 -3.66699 -10 -11 -16c-1.33301 -2 -10 -9.33301 -26 -22l-9 -6
c-4.66699 -3.33301 -9.16699 -7.33301 -13.5 -12s-6.16602 -8 -5.49902 -10c6 -30.667 9 -51.667 9 -63c0 -19.333 -6.33301 -41.333 -19 -66c-19.333 -32 -46 -48 -80 -48c-16.667 0 -32.667 3.33301 -48 10s-25.333 14 -30 22c-11.333 14.667 -17 31.334 -17 50.001
c0 18 5.16699 36.5 15.5 55.5s23.833 35.833 40.5 50.5l2 2c2.66699 2.66699 4 5.33398 4 8.00098s-2.66699 5.66699 -8 9l-30 9c-41.333 9.33301 -72.333 21.333 -93 36c-11.333 11.333 -17 24.666 -17 39.999c0 22 10.667 46.667 32 74c21.333 26.667 47.5 49 78.5 67
s60.167 27 87.5 27c34.667 0 60 -15.333 76 -46c2 -4 3.66699 -10.667 5 -20c0 -24 -4.33301 -44.5 -13 -61.5zM182.001 54c-3.33301 5.33301 -6.33105 8 -8.99805 8c-4.66699 0 -9.33398 -3.33301 -14.001 -10c-5.33301 -8 -10 -18 -14 -30l-2 -8
c0 -4 1.5 -7.16699 4.5 -9.5s6.5 -3.5 10.5 -3.5c7.33301 0 13.666 2.83301 18.999 8.5s8 13.167 8 22.5c0 10 -1 17.333 -3 22z" />
    <glyph glyph-name="t" unicode="t" horiz-adv-x="217" 
d="M287 522c-4 5.33301 -11.332 7.99902 -21.999 7.99902c-7.33301 0 -22 -1.66699 -44 -5l-40 -6c-4 0 -6 6.66699 -6 20c0 15.333 2 37 6 65s8 49.333 12 64c2 7.33301 6.33301 35.333 13 84c0 9.33301 -4.33301 14 -13 14c-6.66699 0 -28 -3.33301 -64 -10
c-15.333 -2.66699 -27 -5.33398 -35 -8.00098c-6.66699 -2 -11 -4.33301 -13 -7s-3 -7.33398 -3 -14.001v-9l-3 -52c-2 -50.667 -5.66699 -94 -11 -130c-4 -24.667 -12.167 -41 -24.5 -49s-24 -12.5 -35 -13.5s-18.167 -1.83301 -21.5 -2.5l-26 -6
c-2 -1.33301 -6.33301 -2.66602 -13 -3.99902c-6 -0.666992 -10 -1.66699 -12 -3s-3 -4.33301 -3 -9s0.333008 -7.66699 1 -9c0.666992 -10 6 -15 16 -15c5.33301 0 9 0.333008 11 1s4.33301 1 7 1c2.66699 0.666992 11 1.66699 25 3l47 4c10 0 15 -12.667 15 -38
c0 -8 -2.66699 -40.333 -8 -97c-9.33301 -78.667 -14 -142.667 -14 -192c0 -34.667 7.83301 -64.5 23.5 -89.5s34.834 -37.5 57.501 -37.5c13.333 0 26.666 4.66699 39.999 14c18.667 15.333 34.667 35 48 59s20 42.667 20 56c0 6.66699 -2 10 -6 10c-6 0 -12.667 -3 -20 -9
c-9.33301 -8 -19.666 -17.667 -30.999 -29c-16.667 -18 -27.667 -27 -33 -27c-10 0 -15 16 -15 48c0 28.667 5.66699 80.334 17 155.001s21.666 135 30.999 181c2 6 5.33301 9.83301 10 11.5s10.667 2.83398 18 3.50098s12.666 1.33398 15.999 2.00098
c30 4 51.333 8.33301 64 13c13.333 5.33301 21 13.666 23 24.999c0.666992 14 -1 23.667 -5 29z" />
    <glyph glyph-name="u" unicode="u" horiz-adv-x="268" 
d="M151.5 16c-11.667 -10.667 -27.5049 -15.998 -47.5049 -15.998c-37.333 0 -64.5 13.167 -81.5 39.5s-25.5 68.833 -25.5 127.5c0 28.667 2 58.167 6 88.5s8.66699 56.5 14 78.5c0.666992 4 5.33398 7.33301 14.001 10s18.334 4 29.001 4c8.66699 0 16 -1 22 -3
s9.33301 -5 10 -9l-3 -29c-7.33301 -66 -11 -117.667 -11 -155c0 -40.667 4.66699 -63.334 14 -68.001l9 -2c14.667 0 31 18.167 49 54.5s30.667 71.833 38 106.5c2.66699 10 4 23.667 4 41c0.666992 4 4.33398 7.16699 11.001 9.5s14.334 3.5 23.001 3.5
c8 0 14.5 -1.16699 19.5 -3.5s7.5 -5.5 7.5 -9.5l-2 -39c-2 -22.667 -3 -46.667 -3 -72v-79c0 -23.333 -0.666992 -38 -2 -44s-4.66602 -9.66699 -9.99902 -11c-8.66699 -2.66699 -17 0.166016 -25 8.49902s-13.667 19.833 -17 34.5h-1
c-16 -33.333 -29.833 -55.333 -41.5 -66z" />
    <glyph glyph-name="v" unicode="v" horiz-adv-x="361" 
d="M328 406.5c-12.667 1.66699 -25.6689 2.5 -39.002 2.5c-14.667 0 -27 -1 -37 -3c-10 -2.66699 -15.333 -6.33398 -16 -11.001l-4 -25c-13.333 -76 -26.333 -139 -39 -189s-28.334 -75 -47.001 -75c-7.33301 0 -15.666 7 -24.999 21c-6.66699 8.66699 -10 38 -10 88l1 68
c0.666992 10 1 32.333 1 67c0 67.333 -6.66699 98.333 -20 93c-23.333 -11.333 -43.166 -23 -59.499 -35s-25.166 -22.667 -26.499 -32c-2 -14.667 -3.66699 -39.167 -5 -73.5s-2 -68.833 -2 -103.5c0 -46 1 -79 3 -99c2 -25.333 12.167 -47.666 30.5 -66.999
s40.833 -30 67.5 -32c43.333 -1.33301 76.333 11 99 37c20 23.333 33.833 51.166 41.5 83.499s13.5 77.5 17.5 135.5c3.33301 42.667 6.66602 70 9.99902 82l19 -1c16.667 0 33.334 1.66699 50.001 5c14 3.33301 21 8.33301 21 15l1 15l1 17c0 4.66699 -3 8.33398 -9 11.001
c-3.33301 2 -11.333 3.83301 -24 5.5z" />
    <glyph glyph-name="w" unicode="w" horiz-adv-x="567" 
d="M221 160c12.667 -50.667 27.001 -90.668 43.001 -120.001c14.667 -28 33.334 -42 56.001 -42c7.33301 0 17 2.66699 29 8c17.333 8 32 25.333 44 52c11.333 25.333 25.666 67.666 42.999 126.999c4 8.66699 21 13 51 13h31c13.333 0 22.333 1.33301 27 4
s10.667 9.33398 18 20.001c8 12.667 12 20.667 12 24c0 4 -2.83301 6.83301 -8.5 8.5s-15.5 3.16699 -29.5 4.5c-32 1.33301 -59.333 2 -82 2l-48 -1c-3.33301 -1.33301 -6 -5.66602 -8 -12.999c-4 -12 -8 -30.667 -12 -56c-4.66699 -26.667 -9.33398 -48 -14.001 -64
s-11.667 -31.333 -21 -46l-9 -5c-3.33301 0 -6.33301 2 -9 6c-1.33301 0 -12.333 78.333 -33 235l-7 51c-0.666992 2.66699 -3 4 -7 4c-8.66699 0 -21 -4.5 -37 -13.5s-25.333 -17.167 -28 -24.5l-8 -28c-41.333 -151.333 -72.333 -227 -93 -227c-6.66699 0 -11 6 -13 18
c-2 9.33301 -3.66699 39.333 -5 90c-0.666992 32 -1 119.667 -1 263c0 4 -2 6.33301 -6 7c-0.666992 0.666992 -9 -2 -25 -8c-18 -7.33301 -33.5 -15.333 -46.5 -24s-20.5 -16.667 -22.5 -24c-1.33301 -16 -2 -98.667 -2 -248c4 -91.333 24.667 -141 62 -149
c3.33301 -0.666992 10 -1 20 -1c32 0 57.167 9.83301 75.5 29.5s34.833 51.5 49.5 95.5l12 32h2z" />
    <glyph glyph-name="x" unicode="x" horiz-adv-x="346" 
d="M204 331l-12.999 59.998c-10.667 44 -28.667 66 -54 66c-18.667 0 -33.667 -6.33301 -45 -19s-25.666 -36.667 -42.999 -72c-16 -33.333 -32.333 -63 -49 -89v-2c0 -4.66699 3 -8.66699 9 -12c3.33301 0 6.66602 1.66699 9.99902 5l65 87c2.66699 2.66699 4.66699 4 6 4
c2 0 4 -2.66699 6 -8l35 -154c0 -7.33301 -1.66699 -13.666 -5 -18.999l-39 -52c-54.667 -70.667 -82 -110 -82 -118c0 -4 2 -6.66699 6 -8c6 0 17.5 2.16699 34.5 6.5s26.167 7.16602 27.5 8.49902c15.333 18.667 41 51.667 77 99c20 -60.667 42 -91 66 -91
c8.66699 0 17 4 25 12c9.33301 8 30.166 35.333 62.499 82s48.5 72.334 48.5 77.001c0 6.66699 -2.33301 10 -7 10c-2.66699 0 -6 -2 -10 -6c-5.33301 -5.33301 -11.666 -12.666 -18.999 -21.999c-16 -20 -25.333 -31.333 -28 -34c-6.66699 -8 -13.667 -12 -21 -12
c-6.66699 0 -11.667 5 -15 15c-5.33301 15.333 -10 32.333 -14 51c-2 9.33301 -3 17.333 -3 24c0 8.66699 1.5 15.667 4.5 21s6 9.5 9 12.5s4.83301 5.16699 5.5 6.5c27.333 34.667 49.666 65 66.999 91c17.333 24 23.333 39 18 45
c-1.33301 2 -2.66602 3.83301 -3.99902 5.5s-2.33301 3.5 -3 5.5c-2 2 -4.33301 3 -7 3s-5.33398 -1.33301 -8.00098 -4c-62 -81.333 -96.333 -122.333 -103 -123z" />
    <glyph glyph-name="y" unicode="y" horiz-adv-x="390" 
d="M387 234c6.66699 -0.666992 9.99609 -3.66699 9.99609 -9v-2c-2 -4 -7.66699 -12.333 -17 -25l-27 -37c-22.667 -29.333 -34 -45 -34 -47l1 -119c0 -108.667 -0.666992 -170.334 -2 -185.001c-2.66699 -29.333 -8.16699 -56.666 -16.5 -81.999
s-20.5 -41.666 -36.5 -48.999c-11.333 -3.33301 -24 -5 -38 -5c-13.333 0 -22.666 1.66699 -27.999 5c-30 20 -45 46.333 -45 79c0 15.333 2.5 31.333 7.5 48s13.833 40.334 26.5 71.001c17.333 44.667 29.5 80.667 36.5 108s9.5 55.333 7.5 84
c-5.33301 -2.66699 -13.333 -10.667 -24 -24c-11.333 -14.667 -21.833 -25.667 -31.5 -33s-21.167 -11 -34.5 -11c-15.333 0 -32.333 5.33301 -51 16c-60.667 32 -91 92.333 -91 181c0 30 2.33301 54.667 7 74c4 21.333 6 33.666 6 36.999
c0.666992 3.33301 8.83398 7.16602 24.501 11.499s29.5 6.5 41.5 6.5c11.333 0 17 -2.33301 17 -7c4.66699 -18.667 7 -47.667 7 -87v-42c0 -40 3.16699 -70.333 9.5 -91s18.166 -34.667 35.499 -42c16.667 2.66699 29.667 13 39 31c8.66699 16 15.334 35.833 20.001 59.5
s10.334 63.834 17.001 120.501l6 47c0.666992 5.33301 4.33398 9.33301 11.001 12s15 4 25 4c10.667 0 20 -2 28 -6s12 -9 12 -15c0.666992 -15.333 2.16699 -36.833 4.5 -64.5s4.83301 -50.834 7.5 -69.501l65 57h4zM242.996 -215c4.66699 22 6.99902 35 6.99902 39
c-1.33301 39.333 -3.66602 67 -6.99902 83l-20 -40c-10.667 -20 -17.834 -36.333 -21.501 -49s-5.5 -27 -5.5 -43c0 -24 7 -39.333 21 -46c0.666992 -0.666992 2.33398 -1 5.00098 -1c3.33301 0 6.33301 1 9 3c3.33301 14 7.33301 32 12 54z" />
    <glyph glyph-name="z" unicode="z" horiz-adv-x="378" 
d="M15 296c0 15.333 62.668 28.6689 188.001 40.002l20 2c14.667 2 27.834 -2.16699 39.501 -12.5s17.5 -22.5 17.5 -36.5l-2 -12c-7.33301 -20 -31 -48.667 -71 -86c-16.667 -16.667 -30.334 -31 -41.001 -43c-8.66699 -9.33301 -13 -18 -13 -26
c0 -6 4.66699 -10.667 14 -14c14 -4 26.167 -9.66699 36.5 -17s21.166 -17 32.499 -29c10 -10.667 18.333 -18.167 25 -22.5s13.667 -6.5 21 -6.5c5.33301 0 10.333 1 15 3l23 10c14 4.66699 26.333 8.33398 37 11.001l5 1c4.66699 0 8.5 -1.5 11.5 -4.5s4.5 -6.5 4.5 -10.5
c0 -12.667 -14.667 -22 -44 -28c-26 -8 -43.667 -15.333 -53 -22s-14 -16.334 -14 -29.001c0 -52 -2 -94.333 -6 -127c-10 -75.333 -48.667 -139.333 -116 -192c-16.667 -12.667 -36.334 -22.834 -59.001 -30.501s-45 -11.5 -67 -11.5
c-32.667 0 -58.834 8.83301 -78.501 26.5s-29.5 43.834 -29.5 78.501c0 39.333 15 84.666 45 135.999c38.667 47.333 77.834 84.5 117.501 111.5s73.5 43.167 101.5 48.5c24 4 36 6.33301 36 7c1.33301 10.667 -7.33398 20.667 -26.001 30s-39.667 14 -63 14
c-17.333 0 -32 -2.33301 -44 -7c-12 -4 -21.667 -6 -29 -6c-10.667 0 -20.167 4.83301 -28.5 14.5s-12.5 19.5 -12.5 29.5c0 9.33301 3.66699 18.666 11 27.999l20 25c39.333 49.333 68 86.333 86 111c10.667 15.333 17.334 26.5 20.001 33.5s1.33398 10.167 -3.99902 9.5
l-111 -11c-10 0 -15 4.66699 -15 14zM200.001 -15.9971c-26 0 -56 -16 -90 -48s-63.5 -69.333 -88.5 -112s-37.5 -76 -37.5 -100c0 -10 2.66699 -17.5 8 -22.5s13.333 -6.83301 24 -5.5c20 4.66699 48 23.667 84 57c37.333 34.667 69.5 71.5 96.5 110.5
s40.5 69.167 40.5 90.5c0 10 -3.33301 17.333 -10 22c-7.33301 5.33301 -16.333 8 -27 8z" />
    <glyph glyph-name="braceleft" unicode="{" horiz-adv-x="309" 
d="M185 608.5c-3.33301 -3 -8.66699 -6.83496 -16 -11.502l-16 -9c-26.667 -20 -40 -45 -40 -75c0 -8.66699 1 -17.334 3 -26.001s5.66699 -21 11 -37c2.66699 -7.33301 5.33398 -16 8.00098 -26c4.66699 -18 7 -34.333 7 -49c0 -20.667 -5.66699 -40.334 -17 -59.001
c-5.33301 -7.33301 -8 -14.666 -8 -21.999c0 -4.66699 2.66699 -10.667 8 -18c26 -29.333 39 -66 39 -110c0 -20 -3.33301 -48.667 -10 -86l-2 -7l-2 -6l-2 -18c0 -17.333 5.5 -31.5 16.5 -42.5s25.167 -16.5 42.5 -16.5l17 2l16 2c3.33301 0.666992 8.33301 1 15 1
c14 0 21 -3.66699 21 -11c0 -9.33301 -12.667 -18.333 -38 -27c-23.333 -7.33301 -41.333 -11 -54 -11c-20 0 -36.333 6.66699 -49 20s-22.667 34.333 -30 63c-13.333 50.667 -21 98.667 -23 144c-0.666992 16 -2.33398 28.667 -5.00098 38
c-4 19.333 -9.66699 32.666 -17 39.999s-19.666 12.333 -36.999 15c-7.33301 0.666992 -13 2.83398 -17 6.50098s-6 7.83398 -6 12.501c0 8.66699 5.33301 15.334 16 20.001c15.333 9.33301 26.166 23.166 32.499 41.499s9.5 41.5 9.5 69.5
c0 20.667 -1.33301 45.334 -4 74.001c-2.66699 45.333 9.33301 82.333 36 111c8 8 19.833 15 35.5 21s29.5 9 41.5 9c7.33301 0 13 -1.16699 17 -3.5s6 -5.16602 6 -8.49902c0 -4 -1.66699 -7.5 -5 -10.5z" />
    <glyph glyph-name="braceright" unicode="}" horiz-adv-x="360" 
d="M147 -30.5c4 3 10.332 6.50293 18.999 10.5029l16 8c31.333 20 47 47 47 81c0 6.66699 -1 15.167 -3 25.5s-4 19.833 -6 28.5l-7 32c-3.33301 16.667 -5 30.667 -5 42c0 26.667 7.33301 49.667 22 69c6.66699 7.33301 10 15 10 23c0 6.66699 -2.33301 12.334 -7 17.001
c-21.333 29.333 -32 62.333 -32 99c0 24.667 5.66699 59.667 17 105c2.66699 7.33301 4.33398 11.666 5.00098 12.999c2.66699 10 4 18 4 24c0 17.333 -6 31.666 -18 42.999s-27.333 17 -46 17l-10 -1l-28 -2l-18 2c-4.66699 2.66699 -7 6 -7 10c0 7.33301 4 12.333 12 15
c6.66699 4 18.5 8.16699 35.5 12.5s31.167 6.5 42.5 6.5c23.333 0 41.333 -7.16699 54 -21.5s22 -37.5 28 -69.5c10.667 -52 15 -102 13 -150c0 -17.333 1 -30.666 3 -39.999c2.66699 -20 7.33398 -33.833 14.001 -41.5s19 -13.834 37 -18.501
c14.667 -2.66699 22 -9.33398 22 -20.001c0 -9.33301 -5.66699 -16 -17 -20c-20 -11.333 -33.833 -29.333 -41.5 -54s-11.5 -58.334 -11.5 -101.001v-32c0 -46 -15.333 -83.333 -46 -112c-8 -7.33301 -19.333 -13.333 -34 -18s-28.334 -7 -41.001 -7
c-19.333 0 -29 4.66699 -29 14c0 4 2 7.5 6 10.5z" />
    <glyph glyph-name="questiondown" unicode="&#xbf;" horiz-adv-x="388" 
d="M212.5 590.5c-12.333 -14.333 -25.168 -21.5 -38.501 -21.5c-17.333 0 -33.666 7 -48.999 21s-23 29 -23 45c0 15.333 7 30.333 21 45s28.333 22 43 22c15.333 0 30 -7 44 -21s21 -29 21 -45s-6.16699 -31.167 -18.5 -45.5zM191.998 499
c6 0 11.335 -5.00098 16.002 -15.001c2 -5.33301 3.33301 -8.33301 4 -9c20 -36.667 30 -71 30 -103c0 -21.333 -4.66699 -42 -14 -62c-12.667 -28 -33 -64.333 -61 -109l-13 -20c-16 -23.333 -27.167 -42.666 -33.5 -57.999s-9.5 -32.333 -9.5 -51
c0 -21.333 4.33301 -40.333 13 -57c9.33301 -20 24.666 -37.5 45.999 -52.5s45.333 -22.5 72 -22.5c18.667 0 34.167 2.66699 46.5 8s23.166 13.333 32.499 24l19 20c11.333 15.333 20 23 26 23c4 0 6 -3.33301 6 -10c0 -8.66699 -3.66699 -18.334 -11 -29.001
c-18.667 -29.333 -40.167 -49.5 -64.5 -60.5s-51.166 -16.5 -80.499 -16.5c-40 0 -81 10.333 -123 31c-28.667 14.667 -51.334 36.5 -68.001 65.5s-25 60.5 -25 94.5c0 32.667 8 63 24 91c9.33301 16.667 19.833 32.667 31.5 48s29.167 37 52.5 65
c23.333 28.667 41 57 53 85s18 57.333 18 88l-1 14c0 10.667 3.33301 16.334 10 17.001z" />
  </font>
</defs>
</svg>
